M48
;GenerationSoftware,Autodesk,EAGLE,9.6.2*%
;CreationDate,2023-07-05T21:30:39Z*%
FMAT,2
ICI,OFF
METRIC,TZ,000.000
T3C0.800
T2C1.016
T1C3.000
%
G90
M71
T1
X73660Y78740
X73660Y35560
X53340Y35560
X53340Y78740
X73660Y35560
X53340Y35560
X53340Y78740
X73660Y78740
T2
X41910Y34290
X39370Y34290
X36830Y34290
X34290Y34290
X86360Y73660
X88900Y73660
X82550Y34290
X85090Y34290
X87630Y34290
X90170Y34290
X83820Y54610
X86360Y54610
X88900Y54610
X44450Y34290
X83820Y73660
T3
X74930Y46990
X74930Y44450
X74930Y41910
X74930Y49530
X52070Y74930
X52070Y72390
X52070Y69850
X52070Y67310
X52070Y64770
X52070Y62230
X52070Y59690
X52070Y57150
X52070Y54610
X52070Y52070
X52070Y49530
X52070Y46990
X52070Y44450
X52070Y41910
X52070Y39370
X74930Y52070
X74930Y54610
X74930Y57150
X74930Y59690
X74930Y62230
X74930Y64770
X74930Y67310
X74930Y69850
X74930Y72390
X74930Y74930
X74930Y39370
M30