solid OpenSCAD_Model
  facet normal 1 -0 0
    outer loop
      vertex -9.5 6.3 -6
      vertex -9.5 30.2862 -9
      vertex -9.5 30.2862 -6
    endloop
  endfacet
  facet normal 1 0 0
    outer loop
      vertex -9.5 30.2862 -9
      vertex -9.5 6.3 -6
      vertex -9.5 6.3 -9
    endloop
  endfacet
  facet normal -1 0 0
    outer loop
      vertex -11.7 6.3 -9
      vertex -11.7 30.2862 -6
      vertex -11.7 30.2862 -9
    endloop
  endfacet
  facet normal -1 -0 0
    outer loop
      vertex -11.7 30.2862 -6
      vertex -11.7 6.3 -9
      vertex -11.7 6.3 -6
    endloop
  endfacet
  facet normal 0 1 -0
    outer loop
      vertex -9.5 30.2862 -9
      vertex -11.7 30.2862 -6
      vertex -9.5 30.2862 -6
    endloop
  endfacet
  facet normal 0 1 0
    outer loop
      vertex -11.7 30.2862 -6
      vertex -9.5 30.2862 -9
      vertex -11.7 30.2862 -9
    endloop
  endfacet
  facet normal -0 0 1
    outer loop
      vertex -11.7 30.2862 -6
      vertex -9.5 6.3 -6
      vertex -9.5 30.2862 -6
    endloop
  endfacet
  facet normal 0 0 1
    outer loop
      vertex -9.5 6.3 -6
      vertex -11.7 30.2862 -6
      vertex -11.7 6.3 -6
    endloop
  endfacet
  facet normal 0 -1 0
    outer loop
      vertex -11.7 6.3 -9
      vertex -9.5 6.3 -6
      vertex -11.7 6.3 -6
    endloop
  endfacet
  facet normal 0 -1 -0
    outer loop
      vertex -9.5 6.3 -6
      vertex -11.7 6.3 -9
      vertex -9.5 6.3 -9
    endloop
  endfacet
  facet normal 1 -0 0
    outer loop
      vertex 11.7 6.3 -6
      vertex 11.7 30.2862 -9
      vertex 11.7 30.2862 -6
    endloop
  endfacet
  facet normal 1 0 0
    outer loop
      vertex 11.7 30.2862 -9
      vertex 11.7 6.3 -6
      vertex 11.7 6.3 -9
    endloop
  endfacet
  facet normal 0 1 -0
    outer loop
      vertex 11.7 30.2862 -9
      vertex 9.5 30.2862 -6
      vertex 11.7 30.2862 -6
    endloop
  endfacet
  facet normal 0 1 0
    outer loop
      vertex 9.5 30.2862 -6
      vertex 11.7 30.2862 -9
      vertex 9.5 30.2862 -9
    endloop
  endfacet
  facet normal -1 0 0
    outer loop
      vertex 9.5 6.3 -9
      vertex 9.5 30.2862 -6
      vertex 9.5 30.2862 -9
    endloop
  endfacet
  facet normal -1 -0 0
    outer loop
      vertex 9.5 30.2862 -6
      vertex 9.5 6.3 -9
      vertex 9.5 6.3 -6
    endloop
  endfacet
  facet normal -0 0 1
    outer loop
      vertex 9.5 30.2862 -6
      vertex 11.7 6.3 -6
      vertex 11.7 30.2862 -6
    endloop
  endfacet
  facet normal 0 0 1
    outer loop
      vertex 11.7 6.3 -6
      vertex 9.5 30.2862 -6
      vertex 9.5 6.3 -6
    endloop
  endfacet
  facet normal 0 -1 0
    outer loop
      vertex 9.5 6.3 -9
      vertex 11.7 6.3 -6
      vertex 9.5 6.3 -6
    endloop
  endfacet
  facet normal 0 -1 -0
    outer loop
      vertex 11.7 6.3 -6
      vertex 9.5 6.3 -9
      vertex 11.7 6.3 -9
    endloop
  endfacet
  facet normal -0.831478 -0.555557 0
    outer loop
      vertex -19.9314 2.86863 -12
      vertex -20.2782 3.38772 -9
      vertex -20.2782 3.38772 -12
    endloop
  endfacet
  facet normal -0.831478 -0.555557 0
    outer loop
      vertex -20.2782 3.38772 -9
      vertex -19.9314 2.86863 -12
      vertex -19.9314 2.86863 -9
    endloop
  endfacet
  facet normal 0.555557 0.831478 -0
    outer loop
      vertex 19.9314 33.7176 -12
      vertex 19.4123 34.0644 -9
      vertex 19.9314 33.7176 -9
    endloop
  endfacet
  facet normal 0.555557 0.831478 0
    outer loop
      vertex 19.4123 34.0644 -9
      vertex 19.9314 33.7176 -12
      vertex 19.4123 34.0644 -12
    endloop
  endfacet
  facet normal -0.555557 -0.831478 0
    outer loop
      vertex -19.9314 2.86863 -12
      vertex -19.4123 2.5218 -9
      vertex -19.9314 2.86863 -9
    endloop
  endfacet
  facet normal -0.555557 -0.831478 -0
    outer loop
      vertex -19.4123 2.5218 -9
      vertex -19.9314 2.86863 -12
      vertex -19.4123 2.5218 -12
    endloop
  endfacet
  facet normal -0.831478 0.555557 0
    outer loop
      vertex -20.2782 33.1985 -12
      vertex -19.9314 33.7176 -9
      vertex -19.9314 33.7176 -12
    endloop
  endfacet
  facet normal -0.831478 0.555557 0
    outer loop
      vertex -19.9314 33.7176 -9
      vertex -20.2782 33.1985 -12
      vertex -20.2782 33.1985 -9
    endloop
  endfacet
  facet normal 0.980784 0.195096 0
    outer loop
      vertex 20.4 32.5862 -9
      vertex 20.2782 33.1985 -12
      vertex 20.2782 33.1985 -9
    endloop
  endfacet
  facet normal 0.980784 0.195096 0
    outer loop
      vertex 20.2782 33.1985 -12
      vertex 20.4 32.5862 -9
      vertex 20.4 32.5862 -12
    endloop
  endfacet
  facet normal 0.831478 0.555557 0
    outer loop
      vertex 20.2782 33.1985 -9
      vertex 19.9314 33.7176 -12
      vertex 19.9314 33.7176 -9
    endloop
  endfacet
  facet normal 0.831478 0.555557 0
    outer loop
      vertex 19.9314 33.7176 -12
      vertex 20.2782 33.1985 -9
      vertex 20.2782 33.1985 -12
    endloop
  endfacet
  facet normal -0 0 -1
    outer loop
      vertex -3.46141 18.8471 -12
      vertex -16.05 7.29904 -12
      vertex -3.8259 19.7677 -12
    endloop
  endfacet
  facet normal 0 0 -1
    outer loop
      vertex -3.8259 19.7677 -12
      vertex -15.5865 29.7045 -12
      vertex -15.3328 30.2743 -12
    endloop
  endfacet
  facet normal 0 0 -1
    outer loop
      vertex -16.6432 7.49178 -12
      vertex -3.8259 19.7677 -12
      vertex -16.05 7.29904 -12
    endloop
  endfacet
  facet normal 0 0 -1
    outer loop
      vertex -3.8259 19.7677 -12
      vertex -16.05 29.2872 -12
      vertex -15.5865 29.7045 -12
    endloop
  endfacet
  facet normal 0 0 -1
    outer loop
      vertex -16.6432 29.0944 -12
      vertex -3.8259 19.7677 -12
      vertex -16.6432 7.49178 -12
    endloop
  endfacet
  facet normal 0 0 -1
    outer loop
      vertex -3.8259 19.7677 -12
      vertex -16.6432 29.0944 -12
      vertex -16.05 29.2872 -12
    endloop
  endfacet
  facet normal 0 0 -1
    outer loop
      vertex -17.2635 7.42658 -12
      vertex -16.6432 29.0944 -12
      vertex -16.6432 7.49178 -12
    endloop
  endfacet
  facet normal 0 0 -1
    outer loop
      vertex -17.2635 7.42658 -12
      vertex -17.2635 29.1596 -12
      vertex -16.6432 29.0944 -12
    endloop
  endfacet
  facet normal 0 0 -1
    outer loop
      vertex -17.8037 7.11472 -12
      vertex -17.2635 29.1596 -12
      vertex -17.2635 7.42658 -12
    endloop
  endfacet
  facet normal 0 0 -1
    outer loop
      vertex -17.8037 7.11472 -12
      vertex -17.8037 29.4715 -12
      vertex -17.2635 29.1596 -12
    endloop
  endfacet
  facet normal 0 0 -1
    outer loop
      vertex -18.1703 6.6101 -12
      vertex -17.8037 29.4715 -12
      vertex -17.8037 7.11472 -12
    endloop
  endfacet
  facet normal 0 0 -1
    outer loop
      vertex -18.1703 6.6101 -12
      vertex -18.1703 29.9761 -12
      vertex -17.8037 29.4715 -12
    endloop
  endfacet
  facet normal 0 0 -1
    outer loop
      vertex -20.4 4.00001 -12
      vertex -18.1703 6.6101 -12
      vertex -18.3 6 -12
    endloop
  endfacet
  facet normal -0 0 -1
    outer loop
      vertex -18.1703 6.6101 -12
      vertex -20.4 4.00001 -12
      vertex -18.1703 29.9761 -12
    endloop
  endfacet
  facet normal 0 0 -1
    outer loop
      vertex 18.0135 29.7045 -12
      vertex 20.4 32.5862 -12
      vertex 18.0135 6.88168 -12
    endloop
  endfacet
  facet normal 0 0 -1
    outer loop
      vertex 20.4 32.5862 -12
      vertex 18.0135 29.7045 -12
      vertex 18.2672 30.2743 -12
    endloop
  endfacet
  facet normal 0 0 -1
    outer loop
      vertex 17.55 7.29904 -12
      vertex 18.0135 29.7045 -12
      vertex 18.0135 6.88168 -12
    endloop
  endfacet
  facet normal 0 0 -1
    outer loop
      vertex 17.55 7.29904 -12
      vertex 17.55 29.2872 -12
      vertex 18.0135 29.7045 -12
    endloop
  endfacet
  facet normal 0 0 -1
    outer loop
      vertex 16.9568 7.49178 -12
      vertex 17.55 29.2872 -12
      vertex 17.55 7.29904 -12
    endloop
  endfacet
  facet normal 0 0 -1
    outer loop
      vertex 16.9568 7.49178 -12
      vertex 16.9568 29.0944 -12
      vertex 17.55 29.2872 -12
    endloop
  endfacet
  facet normal 0 0 -1
    outer loop
      vertex 16.3365 7.42658 -12
      vertex 16.9568 29.0944 -12
      vertex 16.9568 7.49178 -12
    endloop
  endfacet
  facet normal 0 0 -1
    outer loop
      vertex 16.3365 7.42658 -12
      vertex 16.3365 29.1596 -12
      vertex 16.9568 29.0944 -12
    endloop
  endfacet
  facet normal 0 0 -1
    outer loop
      vertex 3.67262 19.2959 -12
      vertex 16.3365 7.42658 -12
      vertex 15.7963 7.11472 -12
    endloop
  endfacet
  facet normal 0 0 -1
    outer loop
      vertex 16.3365 7.42658 -12
      vertex 3.91885 20.2549 -12
      vertex 16.3365 29.1596 -12
    endloop
  endfacet
  facet normal 0 0 -1
    outer loop
      vertex 2.51782 17.7065 -12
      vertex 15.7963 7.11472 -12
      vertex 15.4297 6.6101 -12
    endloop
  endfacet
  facet normal 0 0 -1
    outer loop
      vertex 3.91885 21.2451 -12
      vertex 16.3365 29.1596 -12
      vertex 3.91885 20.2549 -12
    endloop
  endfacet
  facet normal 0 0 -1
    outer loop
      vertex 1.68183 17.1759 -12
      vertex 15.4297 6.6101 -12
      vertex 15.3 6 -12
    endloop
  endfacet
  facet normal -0 0 -1
    outer loop
      vertex 16.3365 29.1596 -12
      vertex 3.91885 21.2451 -12
      vertex 15.7963 29.4715 -12
    endloop
  endfacet
  facet normal 0 0 -1
    outer loop
      vertex 18.0135 5.11832 -12
      vertex 20.4 4.00001 -12
      vertex 20.2782 3.38772 -12
    endloop
  endfacet
  facet normal 0 0 -1
    outer loop
      vertex 18.0135 6.88168 -12
      vertex 20.4 4.00001 -12
      vertex 18.2672 6.31187 -12
    endloop
  endfacet
  facet normal 0 0 -1
    outer loop
      vertex 18.0135 5.11832 -12
      vertex 20.2782 3.38772 -12
      vertex 19.9314 2.86863 -12
    endloop
  endfacet
  facet normal 0 0 -1
    outer loop
      vertex 20.4 4.00001 -12
      vertex 18.0135 6.88168 -12
      vertex 20.4 32.5862 -12
    endloop
  endfacet
  facet normal 0 0 -1
    outer loop
      vertex 18.0135 5.11832 -12
      vertex 19.9314 2.86863 -12
      vertex 19.4123 2.5218 -12
    endloop
  endfacet
  facet normal 0 0 -1
    outer loop
      vertex 18.2672 30.8981 -12
      vertex 20.4 32.5862 -12
      vertex 18.2672 30.2743 -12
    endloop
  endfacet
  facet normal 0 0 -1
    outer loop
      vertex 18.0135 5.11832 -12
      vertex 19.4123 2.5218 -12
      vertex 18.8 2.4 -12
    endloop
  endfacet
  facet normal 0 0 -1
    outer loop
      vertex 18.0135 31.4679 -12
      vertex 20.4 32.5862 -12
      vertex 18.2672 30.8981 -12
    endloop
  endfacet
  facet normal 0 0 -1
    outer loop
      vertex 20.4 4.00001 -12
      vertex 18.2672 5.68813 -12
      vertex 18.2672 6.31187 -12
    endloop
  endfacet
  facet normal 0 0 -1
    outer loop
      vertex 20.4 4.00001 -12
      vertex 18.0135 5.11832 -12
      vertex 18.2672 5.68813 -12
    endloop
  endfacet
  facet normal 0 0 -1
    outer loop
      vertex 18.8 2.4 -12
      vertex 17.55 4.70096 -12
      vertex 18.0135 5.11832 -12
    endloop
  endfacet
  facet normal 0 0 -1
    outer loop
      vertex 18.8 2.4 -12
      vertex 16.9568 4.50822 -12
      vertex 17.55 4.70096 -12
    endloop
  endfacet
  facet normal 0 0 -1
    outer loop
      vertex 18.8 2.4 -12
      vertex 16.3365 4.57342 -12
      vertex 16.9568 4.50822 -12
    endloop
  endfacet
  facet normal 0 0 -1
    outer loop
      vertex 18.8 2.4 -12
      vertex 15.7963 4.88528 -12
      vertex 16.3365 4.57342 -12
    endloop
  endfacet
  facet normal 0 0 -1
    outer loop
      vertex 3.67262 22.2041 -12
      vertex 15.7963 29.4715 -12
      vertex 3.91885 21.2451 -12
    endloop
  endfacet
  facet normal 0 0 -1
    outer loop
      vertex 0.740156 16.87 -12
      vertex 15.3 6 -12
      vertex 15.4297 5.3899 -12
    endloop
  endfacet
  facet normal 0 0 -1
    outer loop
      vertex 3.19562 23.0718 -12
      vertex 15.4297 29.9761 -12
      vertex 3.67262 22.2041 -12
    endloop
  endfacet
  facet normal -0 0 -1
    outer loop
      vertex 15.7963 29.4715 -12
      vertex 3.67262 22.2041 -12
      vertex 15.4297 29.9761 -12
    endloop
  endfacet
  facet normal 0 0 -1
    outer loop
      vertex -15.5865 5.11832 -12
      vertex 15.4297 5.3899 -12
      vertex 15.7963 4.88528 -12
    endloop
  endfacet
  facet normal 0 0 -1
    outer loop
      vertex 16.3365 7.42658 -12
      vertex 3.67262 19.2959 -12
      vertex 3.91885 20.2549 -12
    endloop
  endfacet
  facet normal 0 0 -1
    outer loop
      vertex 15.7963 7.11472 -12
      vertex 3.19562 18.4282 -12
      vertex 3.67262 19.2959 -12
    endloop
  endfacet
  facet normal 0 0 -1
    outer loop
      vertex 15.7963 7.11472 -12
      vertex 2.51782 17.7065 -12
      vertex 3.19562 18.4282 -12
    endloop
  endfacet
  facet normal 0 0 -1
    outer loop
      vertex 15.4297 6.6101 -12
      vertex 1.68183 17.1759 -12
      vertex 2.51782 17.7065 -12
    endloop
  endfacet
  facet normal 0 0 -1
    outer loop
      vertex 15.3 6 -12
      vertex 0.740156 16.87 -12
      vertex 1.68183 17.1759 -12
    endloop
  endfacet
  facet normal 0 0 -1
    outer loop
      vertex -16.05 4.70096 -12
      vertex 15.7963 4.88528 -12
      vertex 18.8 2.4 -12
    endloop
  endfacet
  facet normal 0 0 -1
    outer loop
      vertex 15.4297 5.3899 -12
      vertex -0.248022 16.8078 -12
      vertex 0.740156 16.87 -12
    endloop
  endfacet
  facet normal 0 0 -1
    outer loop
      vertex 15.4297 5.3899 -12
      vertex -15.3328 5.68813 -12
      vertex -0.248022 16.8078 -12
    endloop
  endfacet
  facet normal -0 0 -1
    outer loop
      vertex -0.248022 16.8078 -12
      vertex -15.3328 5.68813 -12
      vertex -1.22062 16.9933 -12
    endloop
  endfacet
  facet normal 0 0 -1
    outer loop
      vertex -15.3328 30.2743 -12
      vertex -3.95 20.75 -12
      vertex -3.8259 19.7677 -12
    endloop
  endfacet
  facet normal -0 0 -1
    outer loop
      vertex -2.87943 18.046 -12
      vertex -15.5865 6.88168 -12
      vertex -3.46141 18.8471 -12
    endloop
  endfacet
  facet normal -0 0 -1
    outer loop
      vertex -2.11652 17.4149 -12
      vertex -15.5865 6.88168 -12
      vertex -2.87943 18.046 -12
    endloop
  endfacet
  facet normal 0 0 -1
    outer loop
      vertex -15.5865 6.88168 -12
      vertex -2.11652 17.4149 -12
      vertex -15.3328 6.31187 -12
    endloop
  endfacet
  facet normal -0 0 -1
    outer loop
      vertex -1.22062 16.9933 -12
      vertex -15.3328 6.31187 -12
      vertex -2.11652 17.4149 -12
    endloop
  endfacet
  facet normal 0 0 -1
    outer loop
      vertex -15.3328 6.31187 -12
      vertex -1.22062 16.9933 -12
      vertex -15.3328 5.68813 -12
    endloop
  endfacet
  facet normal -0 0 -1
    outer loop
      vertex 15.4297 5.3899 -12
      vertex -15.5865 5.11832 -12
      vertex -15.3328 5.68813 -12
    endloop
  endfacet
  facet normal -0 0 -1
    outer loop
      vertex 15.7963 4.88528 -12
      vertex -16.05 4.70096 -12
      vertex -15.5865 5.11832 -12
    endloop
  endfacet
  facet normal 0 0 -1
    outer loop
      vertex -18.8 2.4 -12
      vertex -16.05 4.70096 -12
      vertex 18.8 2.4 -12
    endloop
  endfacet
  facet normal -0 0 -1
    outer loop
      vertex -18.1703 5.3899 -12
      vertex -20.4 4.00001 -12
      vertex -18.3 6 -12
    endloop
  endfacet
  facet normal -0 0 -1
    outer loop
      vertex -17.8037 4.88528 -12
      vertex -20.4 4.00001 -12
      vertex -18.1703 5.3899 -12
    endloop
  endfacet
  facet normal 0 0 -1
    outer loop
      vertex -20.4 4.00001 -12
      vertex -17.8037 4.88528 -12
      vertex -18.8 2.4 -12
    endloop
  endfacet
  facet normal -0 0 -1
    outer loop
      vertex -17.2635 4.57342 -12
      vertex -18.8 2.4 -12
      vertex -17.8037 4.88528 -12
    endloop
  endfacet
  facet normal -0 0 -1
    outer loop
      vertex -16.6432 4.50822 -12
      vertex -18.8 2.4 -12
      vertex -17.2635 4.57342 -12
    endloop
  endfacet
  facet normal 0 0 -1
    outer loop
      vertex -16.05 4.70096 -12
      vertex -18.8 2.4 -12
      vertex -16.6432 4.50822 -12
    endloop
  endfacet
  facet normal -0 0 -1
    outer loop
      vertex 20.4 32.5862 -12
      vertex 18.0135 31.4679 -12
      vertex 20.2782 33.1985 -12
    endloop
  endfacet
  facet normal -0 0 -1
    outer loop
      vertex 20.2782 33.1985 -12
      vertex 18.0135 31.4679 -12
      vertex 19.9314 33.7176 -12
    endloop
  endfacet
  facet normal -0 0 -1
    outer loop
      vertex 19.9314 33.7176 -12
      vertex 18.0135 31.4679 -12
      vertex 19.4123 34.0644 -12
    endloop
  endfacet
  facet normal -0 0 -1
    outer loop
      vertex 19.4123 34.0644 -12
      vertex 18.0135 31.4679 -12
      vertex 18.8 34.1862 -12
    endloop
  endfacet
  facet normal 0 0 -1
    outer loop
      vertex 17.55 31.8852 -12
      vertex 18.8 34.1862 -12
      vertex 18.0135 31.4679 -12
    endloop
  endfacet
  facet normal 0 0 -1
    outer loop
      vertex 16.9568 32.078 -12
      vertex 18.8 34.1862 -12
      vertex 17.55 31.8852 -12
    endloop
  endfacet
  facet normal 0 0 -1
    outer loop
      vertex 16.3365 32.0128 -12
      vertex 18.8 34.1862 -12
      vertex 16.9568 32.078 -12
    endloop
  endfacet
  facet normal 0 0 -1
    outer loop
      vertex 7.9 34.1862 -12
      vertex 16.3365 32.0128 -12
      vertex 15.7963 31.7009 -12
    endloop
  endfacet
  facet normal 0 0 -1
    outer loop
      vertex 16.3365 32.0128 -12
      vertex 7.9 34.1862 -12
      vertex 18.8 34.1862 -12
    endloop
  endfacet
  facet normal 0 0 -1
    outer loop
      vertex 15.4297 31.1963 -12
      vertex 7.9 34.1862 -12
      vertex 15.7963 31.7009 -12
    endloop
  endfacet
  facet normal 0 0 -1
    outer loop
      vertex 7.9 34.1862 -12
      vertex 15.4297 31.1963 -12
      vertex 15.3 30.5862 -12
    endloop
  endfacet
  facet normal 0 -0 -1
    outer loop
      vertex 7.9 34.1862 -12
      vertex 15.4297 29.9761 -12
      vertex 3.19562 23.0718 -12
    endloop
  endfacet
  facet normal 0 0 -1
    outer loop
      vertex 15.4297 29.9761 -12
      vertex 7.9 34.1862 -12
      vertex 15.3 30.5862 -12
    endloop
  endfacet
  facet normal 0 0 -1
    outer loop
      vertex 2.51782 23.7935 -12
      vertex 7.9 34.1862 -12
      vertex 3.19562 23.0718 -12
    endloop
  endfacet
  facet normal 0 0 -1
    outer loop
      vertex 1.68183 24.3241 -12
      vertex 7.9 34.1862 -12
      vertex 2.51782 23.7935 -12
    endloop
  endfacet
  facet normal 0 0 -1
    outer loop
      vertex 0.740156 24.63 -12
      vertex 7.9 34.1862 -12
      vertex 1.68183 24.3241 -12
    endloop
  endfacet
  facet normal 0 0 -1
    outer loop
      vertex -0.248022 24.6922 -12
      vertex 7.9 34.1862 -12
      vertex 0.740156 24.63 -12
    endloop
  endfacet
  facet normal 0 0 -1
    outer loop
      vertex -7.9 34.1862 -12
      vertex 7.9 34.1862 -12
      vertex -0.248022 24.6922 -12
    endloop
  endfacet
  facet normal 0 0 -1
    outer loop
      vertex -7.9 34.1862 -12
      vertex -0.248022 24.6922 -12
      vertex -1.22062 24.5067 -12
    endloop
  endfacet
  facet normal 0 0 -1
    outer loop
      vertex -7.9 34.1862 -12
      vertex -1.22062 24.5067 -12
      vertex -2.11652 24.0851 -12
    endloop
  endfacet
  facet normal 0 0 -1
    outer loop
      vertex -7.9 34.1862 -12
      vertex -2.11652 24.0851 -12
      vertex -2.87943 23.454 -12
    endloop
  endfacet
  facet normal 0 0 -1
    outer loop
      vertex -7.9 34.1862 -12
      vertex -3.8259 21.7323 -12
      vertex -3.95 20.75 -12
    endloop
  endfacet
  facet normal 0 0 -1
    outer loop
      vertex -7.9 34.1862 -12
      vertex -3.46141 22.6529 -12
      vertex -3.8259 21.7323 -12
    endloop
  endfacet
  facet normal 0 0 -1
    outer loop
      vertex -7.9 34.1862 -12
      vertex -2.87943 23.454 -12
      vertex -3.46141 22.6529 -12
    endloop
  endfacet
  facet normal 0 0 -1
    outer loop
      vertex 7.9 34.1862 -12
      vertex -7.9 34.1862 -12
      vertex 7.9 36.5862 -12
    endloop
  endfacet
  facet normal -0 0 -1
    outer loop
      vertex 7.9 36.5862 -12
      vertex -7.9 34.1862 -12
      vertex -7.9 36.5862 -12
    endloop
  endfacet
  facet normal 0 0 -1
    outer loop
      vertex -16.05 7.29904 -12
      vertex -3.46141 18.8471 -12
      vertex -15.5865 6.88168 -12
    endloop
  endfacet
  facet normal 0 0 -1
    outer loop
      vertex -3.95 20.75 -12
      vertex -15.3328 30.2743 -12
      vertex -7.9 34.1862 -12
    endloop
  endfacet
  facet normal 0 0 -1
    outer loop
      vertex -15.3328 30.8981 -12
      vertex -7.9 34.1862 -12
      vertex -15.3328 30.2743 -12
    endloop
  endfacet
  facet normal 0 0 -1
    outer loop
      vertex -15.5865 31.4679 -12
      vertex -7.9 34.1862 -12
      vertex -15.3328 30.8981 -12
    endloop
  endfacet
  facet normal 0 0 -1
    outer loop
      vertex -16.05 31.8852 -12
      vertex -7.9 34.1862 -12
      vertex -15.5865 31.4679 -12
    endloop
  endfacet
  facet normal 0 0 -1
    outer loop
      vertex -18.8 34.1862 -12
      vertex -16.05 31.8852 -12
      vertex -16.6432 32.078 -12
    endloop
  endfacet
  facet normal 0 0 -1
    outer loop
      vertex -18.8 34.1862 -12
      vertex -16.6432 32.078 -12
      vertex -17.2635 32.0128 -12
    endloop
  endfacet
  facet normal 0 0 -1
    outer loop
      vertex -16.05 31.8852 -12
      vertex -18.8 34.1862 -12
      vertex -7.9 34.1862 -12
    endloop
  endfacet
  facet normal 0 0 -1
    outer loop
      vertex -17.8037 31.7009 -12
      vertex -18.8 34.1862 -12
      vertex -17.2635 32.0128 -12
    endloop
  endfacet
  facet normal 0 0 -1
    outer loop
      vertex -20.4 32.5862 -12
      vertex -17.8037 31.7009 -12
      vertex -18.1703 31.1963 -12
    endloop
  endfacet
  facet normal 0 0 -1
    outer loop
      vertex -20.4 32.5862 -12
      vertex -18.1703 31.1963 -12
      vertex -18.3 30.5862 -12
    endloop
  endfacet
  facet normal 0 0 -1
    outer loop
      vertex -20.4 32.5862 -12
      vertex -18.1703 29.9761 -12
      vertex -20.4 4.00001 -12
    endloop
  endfacet
  facet normal 0 0 -1
    outer loop
      vertex -20.4 4.00001 -12
      vertex -18.8 2.4 -12
      vertex -19.4123 2.5218 -12
    endloop
  endfacet
  facet normal 0 0 -1
    outer loop
      vertex -18.1703 29.9761 -12
      vertex -20.4 32.5862 -12
      vertex -18.3 30.5862 -12
    endloop
  endfacet
  facet normal 0 0 -1
    outer loop
      vertex -20.4 4.00001 -12
      vertex -19.4123 2.5218 -12
      vertex -19.9314 2.86863 -12
    endloop
  endfacet
  facet normal 0 0 -1
    outer loop
      vertex -17.8037 31.7009 -12
      vertex -20.4 32.5862 -12
      vertex -20.2782 33.1985 -12
    endloop
  endfacet
  facet normal 0 0 -1
    outer loop
      vertex -20.4 4.00001 -12
      vertex -19.9314 2.86863 -12
      vertex -20.2782 3.38772 -12
    endloop
  endfacet
  facet normal 0 0 -1
    outer loop
      vertex -17.8037 31.7009 -12
      vertex -19.4123 34.0644 -12
      vertex -18.8 34.1862 -12
    endloop
  endfacet
  facet normal 0 0 -1
    outer loop
      vertex -17.8037 31.7009 -12
      vertex -19.9314 33.7176 -12
      vertex -19.4123 34.0644 -12
    endloop
  endfacet
  facet normal 0 0 -1
    outer loop
      vertex -17.8037 31.7009 -12
      vertex -20.2782 33.1985 -12
      vertex -19.9314 33.7176 -12
    endloop
  endfacet
  facet normal 1 -0 0
    outer loop
      vertex 20.4 4.00001 -9
      vertex 20.4 32.5862 -12
      vertex 20.4 32.5862 -9
    endloop
  endfacet
  facet normal 1 0 0
    outer loop
      vertex 20.4 32.5862 -12
      vertex 20.4 4.00001 -9
      vertex 20.4 4.00001 -12
    endloop
  endfacet
  facet normal 0.555557 -0.831478 0
    outer loop
      vertex 19.4123 2.5218 -12
      vertex 19.9314 2.86863 -9
      vertex 19.4123 2.5218 -9
    endloop
  endfacet
  facet normal 0.555557 -0.831478 0
    outer loop
      vertex 19.9314 2.86863 -9
      vertex 19.4123 2.5218 -12
      vertex 19.9314 2.86863 -12
    endloop
  endfacet
  facet normal 0 -1 0
    outer loop
      vertex -18.8 2.4 -12
      vertex 18.8 2.4 -9
      vertex -18.8 2.4 -9
    endloop
  endfacet
  facet normal 0 -1 -0
    outer loop
      vertex 18.8 2.4 -9
      vertex -18.8 2.4 -12
      vertex 18.8 2.4 -12
    endloop
  endfacet
  facet normal -0.195096 0.980784 0
    outer loop
      vertex -18.8 34.1862 -12
      vertex -19.4123 34.0644 -9
      vertex -18.8 34.1862 -9
    endloop
  endfacet
  facet normal -0.195096 0.980784 0
    outer loop
      vertex -19.4123 34.0644 -9
      vertex -18.8 34.1862 -12
      vertex -19.4123 34.0644 -12
    endloop
  endfacet
  facet normal -0.555557 0.831478 0
    outer loop
      vertex -19.4123 34.0644 -12
      vertex -19.9314 33.7176 -9
      vertex -19.4123 34.0644 -9
    endloop
  endfacet
  facet normal -0.555557 0.831478 0
    outer loop
      vertex -19.9314 33.7176 -9
      vertex -19.4123 34.0644 -12
      vertex -19.9314 33.7176 -12
    endloop
  endfacet
  facet normal 0 1 -0
    outer loop
      vertex -7.9 34.1862 -12
      vertex -18.8 34.1862 -9
      vertex -7.9 34.1862 -9
    endloop
  endfacet
  facet normal 0 1 0
    outer loop
      vertex -18.8 34.1862 -9
      vertex -7.9 34.1862 -12
      vertex -18.8 34.1862 -12
    endloop
  endfacet
  facet normal 0 1 -0
    outer loop
      vertex 18.8 34.1862 -12
      vertex 7.9 34.1862 -9
      vertex 18.8 34.1862 -9
    endloop
  endfacet
  facet normal 0 1 0
    outer loop
      vertex 7.9 34.1862 -9
      vertex 18.8 34.1862 -12
      vertex 7.9 34.1862 -12
    endloop
  endfacet
  facet normal -0.980784 0.195096 0
    outer loop
      vertex -20.4 32.5862 -12
      vertex -20.2782 33.1985 -9
      vertex -20.2782 33.1985 -12
    endloop
  endfacet
  facet normal -0.980784 0.195096 0
    outer loop
      vertex -20.2782 33.1985 -9
      vertex -20.4 32.5862 -12
      vertex -20.4 32.5862 -9
    endloop
  endfacet
  facet normal -0.980784 -0.195096 0
    outer loop
      vertex -20.2782 3.38772 -12
      vertex -20.4 4.00001 -9
      vertex -20.4 4.00001 -12
    endloop
  endfacet
  facet normal -0.980784 -0.195096 0
    outer loop
      vertex -20.4 4.00001 -9
      vertex -20.2782 3.38772 -12
      vertex -20.2782 3.38772 -9
    endloop
  endfacet
  facet normal -0 0 1
    outer loop
      vertex 18.0135 6.88168 -9
      vertex 20.4 4.00001 -9
      vertex 18.0135 29.7045 -9
    endloop
  endfacet
  facet normal 0 0 1
    outer loop
      vertex 20.4 4.00001 -9
      vertex 18.0135 6.88168 -9
      vertex 18.2672 6.31187 -9
    endloop
  endfacet
  facet normal -0 0 1
    outer loop
      vertex 17.55 29.2872 -9
      vertex 18.0135 6.88168 -9
      vertex 18.0135 29.7045 -9
    endloop
  endfacet
  facet normal 0 0 1
    outer loop
      vertex 17.55 29.2872 -9
      vertex 17.55 7.29904 -9
      vertex 18.0135 6.88168 -9
    endloop
  endfacet
  facet normal -0 0 1
    outer loop
      vertex 16.9568 29.0944 -9
      vertex 17.55 7.29904 -9
      vertex 17.55 29.2872 -9
    endloop
  endfacet
  facet normal 0 0 1
    outer loop
      vertex 16.9568 29.0944 -9
      vertex 16.9568 7.49178 -9
      vertex 17.55 7.29904 -9
    endloop
  endfacet
  facet normal 0 0 1
    outer loop
      vertex 16.3365 29.1596 -9
      vertex 16.9568 7.49178 -9
      vertex 16.9568 29.0944 -9
    endloop
  endfacet
  facet normal 0 0 1
    outer loop
      vertex 16.3365 29.1596 -9
      vertex 16.3365 7.42658 -9
      vertex 16.9568 7.49178 -9
    endloop
  endfacet
  facet normal 0 0 1
    outer loop
      vertex 11.7 30.2862 -9
      vertex 16.3365 29.1596 -9
      vertex 15.7963 29.4715 -9
    endloop
  endfacet
  facet normal 0 0 1
    outer loop
      vertex 16.3365 29.1596 -9
      vertex 11.7 30.2862 -9
      vertex 16.3365 7.42658 -9
    endloop
  endfacet
  facet normal 0 0 1
    outer loop
      vertex 11.7 30.2862 -9
      vertex 15.7963 29.4715 -9
      vertex 15.4297 29.9761 -9
    endloop
  endfacet
  facet normal 0 0 1
    outer loop
      vertex 11.7 6.3 -9
      vertex 16.3365 7.42658 -9
      vertex 11.7 30.2862 -9
    endloop
  endfacet
  facet normal -0 0 1
    outer loop
      vertex 11.7 30.2862 -9
      vertex 15.4297 29.9761 -9
      vertex 15.3 30.5862 -9
    endloop
  endfacet
  facet normal 0 0 1
    outer loop
      vertex 16.3365 7.42658 -9
      vertex 11.7 6.3 -9
      vertex 15.7963 7.11472 -9
    endloop
  endfacet
  facet normal 0 0 1
    outer loop
      vertex 18.0135 31.4679 -9
      vertex 20.4 32.5862 -9
      vertex 20.2782 33.1985 -9
    endloop
  endfacet
  facet normal 0 0 1
    outer loop
      vertex 18.0135 29.7045 -9
      vertex 20.4 32.5862 -9
      vertex 18.2672 30.2743 -9
    endloop
  endfacet
  facet normal 0 0 1
    outer loop
      vertex 18.0135 31.4679 -9
      vertex 20.2782 33.1985 -9
      vertex 19.9314 33.7176 -9
    endloop
  endfacet
  facet normal 0 0 1
    outer loop
      vertex 20.4 32.5862 -9
      vertex 18.0135 29.7045 -9
      vertex 20.4 4.00001 -9
    endloop
  endfacet
  facet normal 0 0 1
    outer loop
      vertex 18.0135 31.4679 -9
      vertex 19.9314 33.7176 -9
      vertex 19.4123 34.0644 -9
    endloop
  endfacet
  facet normal -0 0 1
    outer loop
      vertex 18.2672 5.68813 -9
      vertex 20.4 4.00001 -9
      vertex 18.2672 6.31187 -9
    endloop
  endfacet
  facet normal 0 0 1
    outer loop
      vertex 18.0135 31.4679 -9
      vertex 19.4123 34.0644 -9
      vertex 18.8 34.1862 -9
    endloop
  endfacet
  facet normal -0 0 1
    outer loop
      vertex 18.0135 5.11832 -9
      vertex 20.4 4.00001 -9
      vertex 18.2672 5.68813 -9
    endloop
  endfacet
  facet normal 0 0 1
    outer loop
      vertex 20.4 32.5862 -9
      vertex 18.2672 30.8981 -9
      vertex 18.2672 30.2743 -9
    endloop
  endfacet
  facet normal 0 0 1
    outer loop
      vertex 20.4 32.5862 -9
      vertex 18.0135 31.4679 -9
      vertex 18.2672 30.8981 -9
    endloop
  endfacet
  facet normal 0 0 1
    outer loop
      vertex 18.8 34.1862 -9
      vertex 17.55 31.8852 -9
      vertex 18.0135 31.4679 -9
    endloop
  endfacet
  facet normal 0 0 1
    outer loop
      vertex 18.8 34.1862 -9
      vertex 16.9568 32.078 -9
      vertex 17.55 31.8852 -9
    endloop
  endfacet
  facet normal 0 0 1
    outer loop
      vertex 18.8 34.1862 -9
      vertex 16.3365 32.0128 -9
      vertex 16.9568 32.078 -9
    endloop
  endfacet
  facet normal -0 0 1
    outer loop
      vertex 7.9 34.1862 -9
      vertex 16.3365 32.0128 -9
      vertex 18.8 34.1862 -9
    endloop
  endfacet
  facet normal 0 0 1
    outer loop
      vertex 15.7963 7.11472 -9
      vertex 11.7 6.3 -9
      vertex 15.4297 6.6101 -9
    endloop
  endfacet
  facet normal 0 0 1
    outer loop
      vertex 15.4297 31.1963 -9
      vertex 11.7 30.2862 -9
      vertex 15.3 30.5862 -9
    endloop
  endfacet
  facet normal 0 0 1
    outer loop
      vertex 15.7963 31.7009 -9
      vertex 11.7 30.2862 -9
      vertex 15.4297 31.1963 -9
    endloop
  endfacet
  facet normal 0 0 1
    outer loop
      vertex 16.3365 32.0128 -9
      vertex 7.9 34.1862 -9
      vertex 15.7963 31.7009 -9
    endloop
  endfacet
  facet normal 0 0 1
    outer loop
      vertex 15.7963 31.7009 -9
      vertex 7.9 34.1862 -9
      vertex 11.7 30.2862 -9
    endloop
  endfacet
  facet normal -0 0 1
    outer loop
      vertex 7.9 31.5862 -9
      vertex 9.5 30.2862 -9
      vertex 7.9 34.1862 -9
    endloop
  endfacet
  facet normal 0 0 1
    outer loop
      vertex 11.7 30.2862 -9
      vertex 7.9 34.1862 -9
      vertex 9.5 30.2862 -9
    endloop
  endfacet
  facet normal 0 0 1
    outer loop
      vertex 20.4 4.00001 -9
      vertex 18.0135 5.11832 -9
      vertex 20.2782 3.38772 -9
    endloop
  endfacet
  facet normal 0 0 1
    outer loop
      vertex 20.2782 3.38772 -9
      vertex 18.0135 5.11832 -9
      vertex 19.9314 2.86863 -9
    endloop
  endfacet
  facet normal 0 0 1
    outer loop
      vertex 19.9314 2.86863 -9
      vertex 18.0135 5.11832 -9
      vertex 19.4123 2.5218 -9
    endloop
  endfacet
  facet normal 0 0 1
    outer loop
      vertex 19.4123 2.5218 -9
      vertex 18.0135 5.11832 -9
      vertex 18.8 2.4 -9
    endloop
  endfacet
  facet normal -0 0 1
    outer loop
      vertex 17.55 4.70096 -9
      vertex 18.8 2.4 -9
      vertex 18.0135 5.11832 -9
    endloop
  endfacet
  facet normal -0 0 1
    outer loop
      vertex 16.9568 4.50822 -9
      vertex 18.8 2.4 -9
      vertex 17.55 4.70096 -9
    endloop
  endfacet
  facet normal 0 0 1
    outer loop
      vertex 16.3365 4.57342 -9
      vertex 18.8 2.4 -9
      vertex 16.9568 4.50822 -9
    endloop
  endfacet
  facet normal 0 0 1
    outer loop
      vertex 15.7963 4.88528 -9
      vertex 18.8 2.4 -9
      vertex 16.3365 4.57342 -9
    endloop
  endfacet
  facet normal 0 0 1
    outer loop
      vertex 15.4297 6.6101 -9
      vertex 11.7 6.3 -9
      vertex 15.3 6 -9
    endloop
  endfacet
  facet normal 0 0 1
    outer loop
      vertex 11.7 6.3 -9
      vertex 15.4297 5.3899 -9
      vertex 15.3 6 -9
    endloop
  endfacet
  facet normal 0 0 1
    outer loop
      vertex 11.7 6.3 -9
      vertex 15.7963 4.88528 -9
      vertex 15.4297 5.3899 -9
    endloop
  endfacet
  facet normal -0 0 1
    outer loop
      vertex 9.5 6.3 -9
      vertex 15.7963 4.88528 -9
      vertex 11.7 6.3 -9
    endloop
  endfacet
  facet normal 0 0 1
    outer loop
      vertex 15.7963 4.88528 -9
      vertex 9.5 6.3 -9
      vertex 18.8 2.4 -9
    endloop
  endfacet
  facet normal 0 0 1
    outer loop
      vertex 2.51782 23.7935 -9
      vertex 9.5 30.2862 -9
      vertex 7.9 31.5862 -9
    endloop
  endfacet
  facet normal 0 0 1
    outer loop
      vertex 9.5 30.2862 -9
      vertex 3.91885 21.2451 -9
      vertex 3.91885 20.2549 -9
    endloop
  endfacet
  facet normal 0 0 1
    outer loop
      vertex 9.5 30.2862 -9
      vertex 3.91885 20.2549 -9
      vertex 9.5 6.3 -9
    endloop
  endfacet
  facet normal -0 0 1
    outer loop
      vertex 3.67262 19.2959 -9
      vertex 9.5 6.3 -9
      vertex 3.91885 20.2549 -9
    endloop
  endfacet
  facet normal -0 0 1
    outer loop
      vertex 3.19562 18.4282 -9
      vertex 9.5 6.3 -9
      vertex 3.67262 19.2959 -9
    endloop
  endfacet
  facet normal -0 0 1
    outer loop
      vertex 2.51782 17.7065 -9
      vertex 9.5 6.3 -9
      vertex 3.19562 18.4282 -9
    endloop
  endfacet
  facet normal -0 0 1
    outer loop
      vertex 1.68183 17.1759 -9
      vertex 9.5 6.3 -9
      vertex 2.51782 17.7065 -9
    endloop
  endfacet
  facet normal -0 0 1
    outer loop
      vertex 0.740156 16.87 -9
      vertex 9.5 6.3 -9
      vertex 1.68183 17.1759 -9
    endloop
  endfacet
  facet normal -0 0 1
    outer loop
      vertex -0.248022 16.8078 -9
      vertex 9.5 6.3 -9
      vertex 0.740156 16.87 -9
    endloop
  endfacet
  facet normal 0 0 1
    outer loop
      vertex -9.5 6.3 -9
      vertex -0.248022 16.8078 -9
      vertex -1.22062 16.9933 -9
    endloop
  endfacet
  facet normal 0 0 1
    outer loop
      vertex -9.5 6.3 -9
      vertex -1.22062 16.9933 -9
      vertex -2.11652 17.4149 -9
    endloop
  endfacet
  facet normal 0 0 1
    outer loop
      vertex -9.5 6.3 -9
      vertex -2.11652 17.4149 -9
      vertex -2.87943 18.046 -9
    endloop
  endfacet
  facet normal 0 0 1
    outer loop
      vertex -3.8259 21.7323 -9
      vertex -9.5 30.2862 -9
      vertex -3.95 20.75 -9
    endloop
  endfacet
  facet normal 0 0 1
    outer loop
      vertex -3.95 20.75 -9
      vertex -9.5 30.2862 -9
      vertex -3.8259 19.7677 -9
    endloop
  endfacet
  facet normal 0 0 1
    outer loop
      vertex -9.5 6.3 -9
      vertex -3.8259 19.7677 -9
      vertex -9.5 30.2862 -9
    endloop
  endfacet
  facet normal 0 0 1
    outer loop
      vertex -3.8259 19.7677 -9
      vertex -9.5 6.3 -9
      vertex -3.46141 18.8471 -9
    endloop
  endfacet
  facet normal 0 0 1
    outer loop
      vertex -9.5 6.3 -9
      vertex -2.87943 18.046 -9
      vertex -3.46141 18.8471 -9
    endloop
  endfacet
  facet normal 0 0 1
    outer loop
      vertex -0.248022 16.8078 -9
      vertex -9.5 6.3 -9
      vertex 9.5 6.3 -9
    endloop
  endfacet
  facet normal -0 0 1
    outer loop
      vertex -9.5 6.3 -9
      vertex 18.8 2.4 -9
      vertex 9.5 6.3 -9
    endloop
  endfacet
  facet normal 0 0 1
    outer loop
      vertex -16.05 4.70096 -9
      vertex -9.5 6.3 -9
      vertex -11.7 6.3 -9
    endloop
  endfacet
  facet normal 0 0 1
    outer loop
      vertex -15.5865 29.7045 -9
      vertex -11.7 30.2862 -9
      vertex -15.3328 30.2743 -9
    endloop
  endfacet
  facet normal 0 0 1
    outer loop
      vertex -16.05 29.2872 -9
      vertex -11.7 30.2862 -9
      vertex -15.5865 29.7045 -9
    endloop
  endfacet
  facet normal 0 0 1
    outer loop
      vertex -15.3328 5.68813 -9
      vertex -11.7 6.3 -9
      vertex -15.3328 6.31187 -9
    endloop
  endfacet
  facet normal 0 0 1
    outer loop
      vertex -15.5865 5.11832 -9
      vertex -11.7 6.3 -9
      vertex -15.3328 5.68813 -9
    endloop
  endfacet
  facet normal 0 0 1
    outer loop
      vertex -16.05 4.70096 -9
      vertex -11.7 6.3 -9
      vertex -15.5865 5.11832 -9
    endloop
  endfacet
  facet normal 0 0 1
    outer loop
      vertex -9.5 6.3 -9
      vertex -16.05 4.70096 -9
      vertex -18.8 2.4 -9
    endloop
  endfacet
  facet normal 0 0 1
    outer loop
      vertex -18.8 2.4 -9
      vertex -16.05 4.70096 -9
      vertex -16.6432 4.50822 -9
    endloop
  endfacet
  facet normal 0 0 1
    outer loop
      vertex -9.5 6.3 -9
      vertex -18.8 2.4 -9
      vertex 18.8 2.4 -9
    endloop
  endfacet
  facet normal 0 0 1
    outer loop
      vertex -17.2635 4.57342 -9
      vertex -18.8 2.4 -9
      vertex -16.6432 4.50822 -9
    endloop
  endfacet
  facet normal 0 0 1
    outer loop
      vertex -17.8037 4.88528 -9
      vertex -18.8 2.4 -9
      vertex -17.2635 4.57342 -9
    endloop
  endfacet
  facet normal 0 0 1
    outer loop
      vertex -20.4 4.00001 -9
      vertex -17.8037 4.88528 -9
      vertex -18.1703 5.3899 -9
    endloop
  endfacet
  facet normal 0 0 1
    outer loop
      vertex -20.4 4.00001 -9
      vertex -18.1703 5.3899 -9
      vertex -18.3 6 -9
    endloop
  endfacet
  facet normal 0 0 1
    outer loop
      vertex -20.4 4.00001 -9
      vertex -18.1703 6.6101 -9
      vertex -20.4 32.5862 -9
    endloop
  endfacet
  facet normal 0 0 1
    outer loop
      vertex -20.4 32.5862 -9
      vertex -18.8 34.1862 -9
      vertex -19.4123 34.0644 -9
    endloop
  endfacet
  facet normal 0 0 1
    outer loop
      vertex -18.1703 6.6101 -9
      vertex -20.4 4.00001 -9
      vertex -18.3 6 -9
    endloop
  endfacet
  facet normal 0 0 1
    outer loop
      vertex -20.4 32.5862 -9
      vertex -19.4123 34.0644 -9
      vertex -19.9314 33.7176 -9
    endloop
  endfacet
  facet normal 0 0 1
    outer loop
      vertex -17.8037 4.88528 -9
      vertex -20.4 4.00001 -9
      vertex -20.2782 3.38772 -9
    endloop
  endfacet
  facet normal 0 0 1
    outer loop
      vertex -20.4 32.5862 -9
      vertex -19.9314 33.7176 -9
      vertex -20.2782 33.1985 -9
    endloop
  endfacet
  facet normal 0 0 1
    outer loop
      vertex -17.8037 4.88528 -9
      vertex -19.4123 2.5218 -9
      vertex -18.8 2.4 -9
    endloop
  endfacet
  facet normal 0 0 1
    outer loop
      vertex -17.8037 4.88528 -9
      vertex -19.9314 2.86863 -9
      vertex -19.4123 2.5218 -9
    endloop
  endfacet
  facet normal 0 0 1
    outer loop
      vertex -17.8037 4.88528 -9
      vertex -20.2782 3.38772 -9
      vertex -19.9314 2.86863 -9
    endloop
  endfacet
  facet normal 0 0 1
    outer loop
      vertex 9.5 30.2862 -9
      vertex 3.67262 22.2041 -9
      vertex 3.91885 21.2451 -9
    endloop
  endfacet
  facet normal 0 0 1
    outer loop
      vertex 9.5 30.2862 -9
      vertex 3.19562 23.0718 -9
      vertex 3.67262 22.2041 -9
    endloop
  endfacet
  facet normal 0 0 1
    outer loop
      vertex 9.5 30.2862 -9
      vertex 2.51782 23.7935 -9
      vertex 3.19562 23.0718 -9
    endloop
  endfacet
  facet normal 0 0 1
    outer loop
      vertex 7.9 31.5862 -9
      vertex 1.68183 24.3241 -9
      vertex 2.51782 23.7935 -9
    endloop
  endfacet
  facet normal 0 0 1
    outer loop
      vertex 7.9 31.5862 -9
      vertex 0.740156 24.63 -9
      vertex 1.68183 24.3241 -9
    endloop
  endfacet
  facet normal 0 0 1
    outer loop
      vertex 7.9 31.5862 -9
      vertex -0.248022 24.6922 -9
      vertex 0.740156 24.63 -9
    endloop
  endfacet
  facet normal -0 0 1
    outer loop
      vertex -7.9 31.5862 -9
      vertex -0.248022 24.6922 -9
      vertex 7.9 31.5862 -9
    endloop
  endfacet
  facet normal 0 0 1
    outer loop
      vertex -0.248022 24.6922 -9
      vertex -7.9 31.5862 -9
      vertex -1.22062 24.5067 -9
    endloop
  endfacet
  facet normal 0 0 1
    outer loop
      vertex -3.46141 22.6529 -9
      vertex -9.5 30.2862 -9
      vertex -3.8259 21.7323 -9
    endloop
  endfacet
  facet normal 0 0 1
    outer loop
      vertex -2.87943 23.454 -9
      vertex -9.5 30.2862 -9
      vertex -3.46141 22.6529 -9
    endloop
  endfacet
  facet normal -0 0 1
    outer loop
      vertex -9.5 30.2862 -9
      vertex -2.87943 23.454 -9
      vertex -7.9 31.5862 -9
    endloop
  endfacet
  facet normal 0 0 1
    outer loop
      vertex -2.11652 24.0851 -9
      vertex -7.9 31.5862 -9
      vertex -2.87943 23.454 -9
    endloop
  endfacet
  facet normal 0 0 1
    outer loop
      vertex -1.22062 24.5067 -9
      vertex -7.9 31.5862 -9
      vertex -2.11652 24.0851 -9
    endloop
  endfacet
  facet normal 0 0 1
    outer loop
      vertex -11.7 30.2862 -9
      vertex -16.05 29.2872 -9
      vertex -11.7 6.3 -9
    endloop
  endfacet
  facet normal 0 0 1
    outer loop
      vertex -11.7 6.3 -9
      vertex -15.5865 6.88168 -9
      vertex -15.3328 6.31187 -9
    endloop
  endfacet
  facet normal -0 0 1
    outer loop
      vertex -16.05 7.29904 -9
      vertex -11.7 6.3 -9
      vertex -16.05 29.2872 -9
    endloop
  endfacet
  facet normal 0 0 1
    outer loop
      vertex -11.7 6.3 -9
      vertex -16.05 7.29904 -9
      vertex -15.5865 6.88168 -9
    endloop
  endfacet
  facet normal -0 0 1
    outer loop
      vertex -16.6432 29.0944 -9
      vertex -16.05 7.29904 -9
      vertex -16.05 29.2872 -9
    endloop
  endfacet
  facet normal 0 0 1
    outer loop
      vertex -16.6432 29.0944 -9
      vertex -16.6432 7.49178 -9
      vertex -16.05 7.29904 -9
    endloop
  endfacet
  facet normal 0 0 1
    outer loop
      vertex -17.2635 29.1596 -9
      vertex -16.6432 7.49178 -9
      vertex -16.6432 29.0944 -9
    endloop
  endfacet
  facet normal 0 0 1
    outer loop
      vertex -17.2635 29.1596 -9
      vertex -17.2635 7.42658 -9
      vertex -16.6432 7.49178 -9
    endloop
  endfacet
  facet normal 0 0 1
    outer loop
      vertex -17.8037 29.4715 -9
      vertex -17.2635 7.42658 -9
      vertex -17.2635 29.1596 -9
    endloop
  endfacet
  facet normal 0 0 1
    outer loop
      vertex -17.8037 29.4715 -9
      vertex -17.8037 7.11472 -9
      vertex -17.2635 7.42658 -9
    endloop
  endfacet
  facet normal 0 0 1
    outer loop
      vertex -18.1703 29.9761 -9
      vertex -17.8037 7.11472 -9
      vertex -17.8037 29.4715 -9
    endloop
  endfacet
  facet normal 0 0 1
    outer loop
      vertex -18.1703 29.9761 -9
      vertex -18.1703 6.6101 -9
      vertex -17.8037 7.11472 -9
    endloop
  endfacet
  facet normal 0 0 1
    outer loop
      vertex -20.4 32.5862 -9
      vertex -18.1703 29.9761 -9
      vertex -18.3 30.5862 -9
    endloop
  endfacet
  facet normal 0 0 1
    outer loop
      vertex -18.1703 29.9761 -9
      vertex -20.4 32.5862 -9
      vertex -18.1703 6.6101 -9
    endloop
  endfacet
  facet normal 0 0 1
    outer loop
      vertex -7.9 34.1862 -9
      vertex -9.5 30.2862 -9
      vertex -7.9 31.5862 -9
    endloop
  endfacet
  facet normal 0 0 1
    outer loop
      vertex -7.9 34.1862 -9
      vertex -11.7 30.2862 -9
      vertex -9.5 30.2862 -9
    endloop
  endfacet
  facet normal 0 0 1
    outer loop
      vertex -15.3328 30.2743 -9
      vertex -11.7 30.2862 -9
      vertex -15.3328 30.8981 -9
    endloop
  endfacet
  facet normal -0 0 1
    outer loop
      vertex -15.5865 31.4679 -9
      vertex -11.7 30.2862 -9
      vertex -7.9 34.1862 -9
    endloop
  endfacet
  facet normal 0 0 1
    outer loop
      vertex -11.7 30.2862 -9
      vertex -15.5865 31.4679 -9
      vertex -15.3328 30.8981 -9
    endloop
  endfacet
  facet normal 0 0 1
    outer loop
      vertex -7.9 34.1862 -9
      vertex -16.05 31.8852 -9
      vertex -15.5865 31.4679 -9
    endloop
  endfacet
  facet normal -0 0 1
    outer loop
      vertex -18.8 34.1862 -9
      vertex -16.05 31.8852 -9
      vertex -7.9 34.1862 -9
    endloop
  endfacet
  facet normal 0 0 1
    outer loop
      vertex -16.05 31.8852 -9
      vertex -18.8 34.1862 -9
      vertex -16.6432 32.078 -9
    endloop
  endfacet
  facet normal 0 0 1
    outer loop
      vertex -18.1703 31.1963 -9
      vertex -20.4 32.5862 -9
      vertex -18.3 30.5862 -9
    endloop
  endfacet
  facet normal 0 0 1
    outer loop
      vertex -17.8037 31.7009 -9
      vertex -20.4 32.5862 -9
      vertex -18.1703 31.1963 -9
    endloop
  endfacet
  facet normal -0 0 1
    outer loop
      vertex -20.4 32.5862 -9
      vertex -17.8037 31.7009 -9
      vertex -18.8 34.1862 -9
    endloop
  endfacet
  facet normal 0 0 1
    outer loop
      vertex -17.2635 32.0128 -9
      vertex -18.8 34.1862 -9
      vertex -17.8037 31.7009 -9
    endloop
  endfacet
  facet normal 0 0 1
    outer loop
      vertex -16.6432 32.078 -9
      vertex -18.8 34.1862 -9
      vertex -17.2635 32.0128 -9
    endloop
  endfacet
  facet normal 0.980784 -0.195096 0
    outer loop
      vertex 20.2782 3.38772 -9
      vertex 20.4 4.00001 -12
      vertex 20.4 4.00001 -9
    endloop
  endfacet
  facet normal 0.980784 -0.195096 0
    outer loop
      vertex 20.4 4.00001 -12
      vertex 20.2782 3.38772 -9
      vertex 20.2782 3.38772 -12
    endloop
  endfacet
  facet normal 0.195096 -0.980784 0
    outer loop
      vertex 18.8 2.4 -12
      vertex 19.4123 2.5218 -9
      vertex 18.8 2.4 -9
    endloop
  endfacet
  facet normal 0.195096 -0.980784 0
    outer loop
      vertex 19.4123 2.5218 -9
      vertex 18.8 2.4 -12
      vertex 19.4123 2.5218 -12
    endloop
  endfacet
  facet normal -0.195096 -0.980784 0
    outer loop
      vertex -19.4123 2.5218 -12
      vertex -18.8 2.4 -9
      vertex -19.4123 2.5218 -9
    endloop
  endfacet
  facet normal -0.195096 -0.980784 -0
    outer loop
      vertex -18.8 2.4 -9
      vertex -19.4123 2.5218 -12
      vertex -18.8 2.4 -12
    endloop
  endfacet
  facet normal 0.195096 0.980784 -0
    outer loop
      vertex 19.4123 34.0644 -12
      vertex 18.8 34.1862 -9
      vertex 19.4123 34.0644 -9
    endloop
  endfacet
  facet normal 0.195096 0.980784 0
    outer loop
      vertex 18.8 34.1862 -9
      vertex 19.4123 34.0644 -12
      vertex 18.8 34.1862 -12
    endloop
  endfacet
  facet normal -1 0 0
    outer loop
      vertex -20.4 4.00001 -12
      vertex -20.4 32.5862 -9
      vertex -20.4 32.5862 -12
    endloop
  endfacet
  facet normal -1 -0 0
    outer loop
      vertex -20.4 32.5862 -9
      vertex -20.4 4.00001 -12
      vertex -20.4 4.00001 -9
    endloop
  endfacet
  facet normal 0.831478 -0.555557 0
    outer loop
      vertex 19.9314 2.86863 -9
      vertex 20.2782 3.38772 -12
      vertex 20.2782 3.38772 -9
    endloop
  endfacet
  facet normal 0.831478 -0.555557 0
    outer loop
      vertex 20.2782 3.38772 -12
      vertex 19.9314 2.86863 -9
      vertex 19.9314 2.86863 -12
    endloop
  endfacet
  facet normal 1 0 0
    outer loop
      vertex 7.9 36.5862 -3.95
      vertex 7.9 34.1862 -9
      vertex 7.9 36.5862 -12
    endloop
  endfacet
  facet normal 1 -0 0
    outer loop
      vertex 7.9 31.5862 -3.95
      vertex 7.9 34.1862 -9
      vertex 7.9 36.5862 -3.95
    endloop
  endfacet
  facet normal 1 0 0
    outer loop
      vertex 7.9 34.1862 -9
      vertex 7.9 31.5862 -3.95
      vertex 7.9 31.5862 -9
    endloop
  endfacet
  facet normal 1 0 0
    outer loop
      vertex 7.9 36.5862 -12
      vertex 7.9 34.1862 -9
      vertex 7.9 34.1862 -12
    endloop
  endfacet
  facet normal -1 0 0
    outer loop
      vertex -7.9 34.1862 -9
      vertex -7.9 36.5862 -12
      vertex -7.9 34.1862 -12
    endloop
  endfacet
  facet normal -1 0 0
    outer loop
      vertex -7.9 36.5862 -12
      vertex -7.9 34.1862 -9
      vertex -7.9 36.5862 -3.95
    endloop
  endfacet
  facet normal -1 0 0
    outer loop
      vertex -7.9 31.5862 -3.95
      vertex -7.9 34.1862 -9
      vertex -7.9 31.5862 -9
    endloop
  endfacet
  facet normal -1 0 0
    outer loop
      vertex -7.9 34.1862 -9
      vertex -7.9 31.5862 -3.95
      vertex -7.9 36.5862 -3.95
    endloop
  endfacet
  facet normal 0 1 -0
    outer loop
      vertex 7.9 36.5862 -12
      vertex -7.9 36.5862 -3.95
      vertex 7.9 36.5862 -3.95
    endloop
  endfacet
  facet normal 0 1 0
    outer loop
      vertex -7.9 36.5862 -3.95
      vertex 7.9 36.5862 -12
      vertex -7.9 36.5862 -12
    endloop
  endfacet
  facet normal -0 0 1
    outer loop
      vertex -7.9 36.5862 -3.95
      vertex 7.9 31.5862 -3.95
      vertex 7.9 36.5862 -3.95
    endloop
  endfacet
  facet normal 0 0 1
    outer loop
      vertex 7.9 31.5862 -3.95
      vertex -7.9 36.5862 -3.95
      vertex -7.9 31.5862 -3.95
    endloop
  endfacet
  facet normal 0 -1 0
    outer loop
      vertex -7.9 31.5862 -9
      vertex 7.9 31.5862 -3.95
      vertex -7.9 31.5862 -3.95
    endloop
  endfacet
  facet normal 0 -1 -0
    outer loop
      vertex 7.9 31.5862 -3.95
      vertex -7.9 31.5862 -9
      vertex 7.9 31.5862 -9
    endloop
  endfacet
  facet normal 0.992115 -0.125334 0
    outer loop
      vertex -3.95 20.75 -9
      vertex -3.8259 21.7323 -12
      vertex -3.8259 21.7323 -9
    endloop
  endfacet
  facet normal 0.992115 -0.125334 0
    outer loop
      vertex -3.8259 21.7323 -12
      vertex -3.95 20.75 -9
      vertex -3.95 20.75 -12
    endloop
  endfacet
  facet normal -1 0 0
    outer loop
      vertex 3.91885 20.2549 -12
      vertex 3.91885 21.2451 -9
      vertex 3.91885 21.2451 -12
    endloop
  endfacet
  facet normal -1 -0 0
    outer loop
      vertex 3.91885 21.2451 -9
      vertex 3.91885 20.2549 -12
      vertex 3.91885 20.2549 -9
    endloop
  endfacet
  facet normal -0.0627896 -0.998027 0
    outer loop
      vertex -0.248022 24.6922 -12
      vertex 0.740156 24.63 -9
      vertex -0.248022 24.6922 -9
    endloop
  endfacet
  facet normal -0.0627896 -0.998027 -0
    outer loop
      vertex 0.740156 24.63 -9
      vertex -0.248022 24.6922 -12
      vertex 0.740156 24.63 -12
    endloop
  endfacet
  facet normal 0.187383 0.982287 -0
    outer loop
      vertex -0.248022 16.8078 -12
      vertex -1.22062 16.9933 -9
      vertex -0.248022 16.8078 -9
    endloop
  endfacet
  facet normal 0.187383 0.982287 0
    outer loop
      vertex -1.22062 16.9933 -9
      vertex -0.248022 16.8078 -12
      vertex -1.22062 16.9933 -12
    endloop
  endfacet
  facet normal 0.637424 -0.770514 0
    outer loop
      vertex -2.87943 23.454 -12
      vertex -2.11652 24.0851 -9
      vertex -2.87943 23.454 -9
    endloop
  endfacet
  facet normal 0.637424 -0.770514 0
    outer loop
      vertex -2.11652 24.0851 -9
      vertex -2.87943 23.454 -12
      vertex -2.11652 24.0851 -12
    endloop
  endfacet
  facet normal -0.728968 -0.684547 0
    outer loop
      vertex 3.19562 23.0718 -12
      vertex 2.51782 23.7935 -9
      vertex 2.51782 23.7935 -12
    endloop
  endfacet
  facet normal -0.728968 -0.684547 0
    outer loop
      vertex 2.51782 23.7935 -9
      vertex 3.19562 23.0718 -12
      vertex 3.19562 23.0718 -9
    endloop
  endfacet
  facet normal -0.876307 -0.481754 0
    outer loop
      vertex 3.67262 22.2041 -12
      vertex 3.19562 23.0718 -9
      vertex 3.19562 23.0718 -12
    endloop
  endfacet
  facet normal -0.876307 -0.481754 0
    outer loop
      vertex 3.19562 23.0718 -9
      vertex 3.67262 22.2041 -12
      vertex 3.67262 22.2041 -9
    endloop
  endfacet
  facet normal -0.535827 -0.844328 0
    outer loop
      vertex 1.68183 24.3241 -12
      vertex 2.51782 23.7935 -9
      vertex 1.68183 24.3241 -9
    endloop
  endfacet
  facet normal -0.535827 -0.844328 -0
    outer loop
      vertex 2.51782 23.7935 -9
      vertex 1.68183 24.3241 -12
      vertex 2.51782 23.7935 -12
    endloop
  endfacet
  facet normal 0.809017 -0.587785 0
    outer loop
      vertex -3.46141 22.6529 -9
      vertex -2.87943 23.454 -12
      vertex -2.87943 23.454 -9
    endloop
  endfacet
  facet normal 0.809017 -0.587785 0
    outer loop
      vertex -2.87943 23.454 -12
      vertex -3.46141 22.6529 -9
      vertex -3.46141 22.6529 -12
    endloop
  endfacet
  facet normal 0.929776 -0.368125 0
    outer loop
      vertex -3.8259 21.7323 -9
      vertex -3.46141 22.6529 -12
      vertex -3.46141 22.6529 -9
    endloop
  endfacet
  facet normal 0.929776 -0.368125 0
    outer loop
      vertex -3.46141 22.6529 -12
      vertex -3.8259 21.7323 -9
      vertex -3.8259 21.7323 -12
    endloop
  endfacet
  facet normal 0.187383 -0.982287 0
    outer loop
      vertex -1.22062 24.5067 -12
      vertex -0.248022 24.6922 -9
      vertex -1.22062 24.5067 -9
    endloop
  endfacet
  facet normal 0.187383 -0.982287 0
    outer loop
      vertex -0.248022 24.6922 -9
      vertex -1.22062 24.5067 -12
      vertex -0.248022 24.6922 -12
    endloop
  endfacet
  facet normal 0.425779 -0.904827 0
    outer loop
      vertex -2.11652 24.0851 -12
      vertex -1.22062 24.5067 -9
      vertex -2.11652 24.0851 -9
    endloop
  endfacet
  facet normal 0.425779 -0.904827 0
    outer loop
      vertex -1.22062 24.5067 -9
      vertex -2.11652 24.0851 -12
      vertex -1.22062 24.5067 -12
    endloop
  endfacet
  facet normal -0.968583 -0.24869 0
    outer loop
      vertex 3.91885 21.2451 -12
      vertex 3.67262 22.2041 -9
      vertex 3.67262 22.2041 -12
    endloop
  endfacet
  facet normal -0.968583 -0.24869 0
    outer loop
      vertex 3.67262 22.2041 -9
      vertex 3.91885 21.2451 -12
      vertex 3.91885 21.2451 -9
    endloop
  endfacet
  facet normal -0.309019 -0.951056 0
    outer loop
      vertex 0.740156 24.63 -12
      vertex 1.68183 24.3241 -9
      vertex 0.740156 24.63 -9
    endloop
  endfacet
  facet normal -0.309019 -0.951056 -0
    outer loop
      vertex 1.68183 24.3241 -9
      vertex 0.740156 24.63 -12
      vertex 1.68183 24.3241 -12
    endloop
  endfacet
  facet normal 0.992115 0.125333 0
    outer loop
      vertex -3.8259 19.7677 -9
      vertex -3.95 20.75 -12
      vertex -3.95 20.75 -9
    endloop
  endfacet
  facet normal 0.992115 0.125333 0
    outer loop
      vertex -3.95 20.75 -12
      vertex -3.8259 19.7677 -9
      vertex -3.8259 19.7677 -12
    endloop
  endfacet
  facet normal -0.535826 0.844328 0
    outer loop
      vertex 2.51782 17.7065 -12
      vertex 1.68183 17.1759 -9
      vertex 2.51782 17.7065 -9
    endloop
  endfacet
  facet normal -0.535826 0.844328 0
    outer loop
      vertex 1.68183 17.1759 -9
      vertex 2.51782 17.7065 -12
      vertex 1.68183 17.1759 -12
    endloop
  endfacet
  facet normal -0.0627916 0.998027 0
    outer loop
      vertex 0.740156 16.87 -12
      vertex -0.248022 16.8078 -9
      vertex 0.740156 16.87 -9
    endloop
  endfacet
  facet normal -0.0627916 0.998027 0
    outer loop
      vertex -0.248022 16.8078 -9
      vertex 0.740156 16.87 -12
      vertex -0.248022 16.8078 -12
    endloop
  endfacet
  facet normal -0.728968 0.684547 0
    outer loop
      vertex 2.51782 17.7065 -12
      vertex 3.19562 18.4282 -9
      vertex 3.19562 18.4282 -12
    endloop
  endfacet
  facet normal -0.728968 0.684547 0
    outer loop
      vertex 3.19562 18.4282 -9
      vertex 2.51782 17.7065 -12
      vertex 2.51782 17.7065 -9
    endloop
  endfacet
  facet normal -0.968583 0.24869 0
    outer loop
      vertex 3.67262 19.2959 -12
      vertex 3.91885 20.2549 -9
      vertex 3.91885 20.2549 -12
    endloop
  endfacet
  facet normal -0.968583 0.24869 0
    outer loop
      vertex 3.91885 20.2549 -9
      vertex 3.67262 19.2959 -12
      vertex 3.67262 19.2959 -9
    endloop
  endfacet
  facet normal 0.809017 0.587785 0
    outer loop
      vertex -2.87943 18.046 -9
      vertex -3.46141 18.8471 -12
      vertex -3.46141 18.8471 -9
    endloop
  endfacet
  facet normal 0.809017 0.587785 0
    outer loop
      vertex -3.46141 18.8471 -12
      vertex -2.87943 18.046 -9
      vertex -2.87943 18.046 -12
    endloop
  endfacet
  facet normal 0.42578 0.904827 -0
    outer loop
      vertex -1.22062 16.9933 -12
      vertex -2.11652 17.4149 -9
      vertex -1.22062 16.9933 -9
    endloop
  endfacet
  facet normal 0.42578 0.904827 0
    outer loop
      vertex -2.11652 17.4149 -9
      vertex -1.22062 16.9933 -12
      vertex -2.11652 17.4149 -12
    endloop
  endfacet
  facet normal -0.309019 0.951056 0
    outer loop
      vertex 1.68183 17.1759 -12
      vertex 0.740156 16.87 -9
      vertex 1.68183 17.1759 -9
    endloop
  endfacet
  facet normal -0.309019 0.951056 0
    outer loop
      vertex 0.740156 16.87 -9
      vertex 1.68183 17.1759 -12
      vertex 0.740156 16.87 -12
    endloop
  endfacet
  facet normal -0.876307 0.481754 0
    outer loop
      vertex 3.19562 18.4282 -12
      vertex 3.67262 19.2959 -9
      vertex 3.67262 19.2959 -12
    endloop
  endfacet
  facet normal -0.876307 0.481754 0
    outer loop
      vertex 3.67262 19.2959 -9
      vertex 3.19562 18.4282 -12
      vertex 3.19562 18.4282 -9
    endloop
  endfacet
  facet normal 0.929776 0.368125 0
    outer loop
      vertex -3.46141 18.8471 -9
      vertex -3.8259 19.7677 -12
      vertex -3.8259 19.7677 -9
    endloop
  endfacet
  facet normal 0.929776 0.368125 0
    outer loop
      vertex -3.8259 19.7677 -12
      vertex -3.46141 18.8471 -9
      vertex -3.46141 18.8471 -12
    endloop
  endfacet
  facet normal 0.637424 0.770514 -0
    outer loop
      vertex -2.11652 17.4149 -12
      vertex -2.87943 18.046 -9
      vertex -2.11652 17.4149 -9
    endloop
  endfacet
  facet normal 0.637424 0.770514 0
    outer loop
      vertex -2.87943 18.046 -9
      vertex -2.11652 17.4149 -12
      vertex -2.87943 18.046 -12
    endloop
  endfacet
  facet normal 0.978147 -0.207913 0
    outer loop
      vertex 15.3 6 -9
      vertex 15.4297 6.6101 -12
      vertex 15.4297 6.6101 -9
    endloop
  endfacet
  facet normal 0.978147 -0.207913 0
    outer loop
      vertex 15.4297 6.6101 -12
      vertex 15.3 6 -9
      vertex 15.3 6 -12
    endloop
  endfacet
  facet normal -1 0 0
    outer loop
      vertex 18.2672 5.68813 -12
      vertex 18.2672 6.31187 -9
      vertex 18.2672 6.31187 -12
    endloop
  endfacet
  facet normal -1 -0 0
    outer loop
      vertex 18.2672 6.31187 -9
      vertex 18.2672 5.68813 -12
      vertex 18.2672 5.68813 -9
    endloop
  endfacet
  facet normal -0.309017 -0.951057 0
    outer loop
      vertex 16.9568 7.49178 -12
      vertex 17.55 7.29904 -9
      vertex 16.9568 7.49178 -9
    endloop
  endfacet
  facet normal -0.309017 -0.951057 -0
    outer loop
      vertex 17.55 7.29904 -9
      vertex 16.9568 7.49178 -12
      vertex 17.55 7.29904 -12
    endloop
  endfacet
  facet normal -0.66913 -0.743145 0
    outer loop
      vertex 17.55 7.29904 -12
      vertex 18.0135 6.88168 -9
      vertex 17.55 7.29904 -9
    endloop
  endfacet
  facet normal -0.66913 -0.743145 -0
    outer loop
      vertex 18.0135 6.88168 -9
      vertex 17.55 7.29904 -12
      vertex 18.0135 6.88168 -12
    endloop
  endfacet
  facet normal 0.104528 0.994522 -0
    outer loop
      vertex 16.9568 4.50822 -12
      vertex 16.3365 4.57342 -9
      vertex 16.9568 4.50822 -9
    endloop
  endfacet
  facet normal 0.104528 0.994522 0
    outer loop
      vertex 16.3365 4.57342 -9
      vertex 16.9568 4.50822 -12
      vertex 16.3365 4.57342 -12
    endloop
  endfacet
  facet normal 0.5 -0.866025 0
    outer loop
      vertex 15.7963 7.11472 -12
      vertex 16.3365 7.42658 -9
      vertex 15.7963 7.11472 -9
    endloop
  endfacet
  facet normal 0.5 -0.866025 0
    outer loop
      vertex 16.3365 7.42658 -9
      vertex 15.7963 7.11472 -12
      vertex 16.3365 7.42658 -12
    endloop
  endfacet
  facet normal 0.809017 -0.587785 0
    outer loop
      vertex 15.4297 6.6101 -9
      vertex 15.7963 7.11472 -12
      vertex 15.7963 7.11472 -9
    endloop
  endfacet
  facet normal 0.809017 -0.587785 0
    outer loop
      vertex 15.7963 7.11472 -12
      vertex 15.4297 6.6101 -9
      vertex 15.4297 6.6101 -12
    endloop
  endfacet
  facet normal 0.104528 -0.994522 0
    outer loop
      vertex 16.3365 7.42658 -12
      vertex 16.9568 7.49178 -9
      vertex 16.3365 7.42658 -9
    endloop
  endfacet
  facet normal 0.104528 -0.994522 0
    outer loop
      vertex 16.9568 7.49178 -9
      vertex 16.3365 7.42658 -12
      vertex 16.9568 7.49178 -12
    endloop
  endfacet
  facet normal -0.913545 -0.406737 0
    outer loop
      vertex 18.2672 6.31187 -12
      vertex 18.0135 6.88168 -9
      vertex 18.0135 6.88168 -12
    endloop
  endfacet
  facet normal -0.913545 -0.406737 0
    outer loop
      vertex 18.0135 6.88168 -9
      vertex 18.2672 6.31187 -12
      vertex 18.2672 6.31187 -9
    endloop
  endfacet
  facet normal 0.978147 0.207913 0
    outer loop
      vertex 15.4297 5.3899 -9
      vertex 15.3 6 -12
      vertex 15.3 6 -9
    endloop
  endfacet
  facet normal 0.978147 0.207913 0
    outer loop
      vertex 15.3 6 -12
      vertex 15.4297 5.3899 -9
      vertex 15.4297 5.3899 -12
    endloop
  endfacet
  facet normal 0.5 0.866025 -0
    outer loop
      vertex 16.3365 4.57342 -12
      vertex 15.7963 4.88528 -9
      vertex 16.3365 4.57342 -9
    endloop
  endfacet
  facet normal 0.5 0.866025 0
    outer loop
      vertex 15.7963 4.88528 -9
      vertex 16.3365 4.57342 -12
      vertex 15.7963 4.88528 -12
    endloop
  endfacet
  facet normal -0.309017 0.951057 0
    outer loop
      vertex 17.55 4.70096 -12
      vertex 16.9568 4.50822 -9
      vertex 17.55 4.70096 -9
    endloop
  endfacet
  facet normal -0.309017 0.951057 0
    outer loop
      vertex 16.9568 4.50822 -9
      vertex 17.55 4.70096 -12
      vertex 16.9568 4.50822 -12
    endloop
  endfacet
  facet normal 0.809017 0.587785 0
    outer loop
      vertex 15.7963 4.88528 -9
      vertex 15.4297 5.3899 -12
      vertex 15.4297 5.3899 -9
    endloop
  endfacet
  facet normal 0.809017 0.587785 0
    outer loop
      vertex 15.4297 5.3899 -12
      vertex 15.7963 4.88528 -9
      vertex 15.7963 4.88528 -12
    endloop
  endfacet
  facet normal -0.66913 0.743145 0
    outer loop
      vertex 18.0135 5.11832 -12
      vertex 17.55 4.70096 -9
      vertex 18.0135 5.11832 -9
    endloop
  endfacet
  facet normal -0.66913 0.743145 0
    outer loop
      vertex 17.55 4.70096 -9
      vertex 18.0135 5.11832 -12
      vertex 17.55 4.70096 -12
    endloop
  endfacet
  facet normal -0.913545 0.406737 0
    outer loop
      vertex 18.0135 5.11832 -12
      vertex 18.2672 5.68813 -9
      vertex 18.2672 5.68813 -12
    endloop
  endfacet
  facet normal -0.913545 0.406737 0
    outer loop
      vertex 18.2672 5.68813 -9
      vertex 18.0135 5.11832 -12
      vertex 18.0135 5.11832 -9
    endloop
  endfacet
  facet normal 0.978147 -0.207913 0
    outer loop
      vertex 15.3 30.5862 -9
      vertex 15.4297 31.1963 -12
      vertex 15.4297 31.1963 -9
    endloop
  endfacet
  facet normal 0.978147 -0.207913 0
    outer loop
      vertex 15.4297 31.1963 -12
      vertex 15.3 30.5862 -9
      vertex 15.3 30.5862 -12
    endloop
  endfacet
  facet normal -1 0 0
    outer loop
      vertex 18.2672 30.2743 -12
      vertex 18.2672 30.8981 -9
      vertex 18.2672 30.8981 -12
    endloop
  endfacet
  facet normal -1 -0 0
    outer loop
      vertex 18.2672 30.8981 -9
      vertex 18.2672 30.2743 -12
      vertex 18.2672 30.2743 -9
    endloop
  endfacet
  facet normal -0.309013 -0.951058 0
    outer loop
      vertex 16.9568 32.078 -12
      vertex 17.55 31.8852 -9
      vertex 16.9568 32.078 -9
    endloop
  endfacet
  facet normal -0.309013 -0.951058 -0
    outer loop
      vertex 17.55 31.8852 -9
      vertex 16.9568 32.078 -12
      vertex 17.55 31.8852 -12
    endloop
  endfacet
  facet normal 0.104527 0.994522 -0
    outer loop
      vertex 16.9568 29.0944 -12
      vertex 16.3365 29.1596 -9
      vertex 16.9568 29.0944 -9
    endloop
  endfacet
  facet normal 0.104527 0.994522 0
    outer loop
      vertex 16.3365 29.1596 -9
      vertex 16.9568 29.0944 -12
      vertex 16.3365 29.1596 -12
    endloop
  endfacet
  facet normal 0.499999 -0.866026 0
    outer loop
      vertex 15.7963 31.7009 -12
      vertex 16.3365 32.0128 -9
      vertex 15.7963 31.7009 -9
    endloop
  endfacet
  facet normal 0.499999 -0.866026 0
    outer loop
      vertex 16.3365 32.0128 -9
      vertex 15.7963 31.7009 -12
      vertex 16.3365 32.0128 -12
    endloop
  endfacet
  facet normal 0.809017 -0.587785 0
    outer loop
      vertex 15.4297 31.1963 -9
      vertex 15.7963 31.7009 -12
      vertex 15.7963 31.7009 -9
    endloop
  endfacet
  facet normal 0.809017 -0.587785 0
    outer loop
      vertex 15.7963 31.7009 -12
      vertex 15.4297 31.1963 -9
      vertex 15.4297 31.1963 -12
    endloop
  endfacet
  facet normal 0.104527 -0.994522 0
    outer loop
      vertex 16.3365 32.0128 -12
      vertex 16.9568 32.078 -9
      vertex 16.3365 32.0128 -9
    endloop
  endfacet
  facet normal 0.104527 -0.994522 0
    outer loop
      vertex 16.9568 32.078 -9
      vertex 16.3365 32.0128 -12
      vertex 16.9568 32.078 -12
    endloop
  endfacet
  facet normal -0.913545 -0.406738 0
    outer loop
      vertex 18.2672 30.8981 -12
      vertex 18.0135 31.4679 -9
      vertex 18.0135 31.4679 -12
    endloop
  endfacet
  facet normal -0.913545 -0.406738 0
    outer loop
      vertex 18.0135 31.4679 -9
      vertex 18.2672 30.8981 -12
      vertex 18.2672 30.8981 -9
    endloop
  endfacet
  facet normal -0.669132 -0.743143 0
    outer loop
      vertex 17.55 31.8852 -12
      vertex 18.0135 31.4679 -9
      vertex 17.55 31.8852 -9
    endloop
  endfacet
  facet normal -0.669132 -0.743143 -0
    outer loop
      vertex 18.0135 31.4679 -9
      vertex 17.55 31.8852 -12
      vertex 18.0135 31.4679 -12
    endloop
  endfacet
  facet normal -0.309018 0.951056 0
    outer loop
      vertex 17.55 29.2872 -12
      vertex 16.9568 29.0944 -9
      vertex 17.55 29.2872 -9
    endloop
  endfacet
  facet normal -0.309018 0.951056 0
    outer loop
      vertex 16.9568 29.0944 -9
      vertex 17.55 29.2872 -12
      vertex 16.9568 29.0944 -12
    endloop
  endfacet
  facet normal -0.913545 0.406737 0
    outer loop
      vertex 18.0135 29.7045 -12
      vertex 18.2672 30.2743 -9
      vertex 18.2672 30.2743 -12
    endloop
  endfacet
  facet normal -0.913545 0.406737 0
    outer loop
      vertex 18.2672 30.2743 -9
      vertex 18.0135 29.7045 -12
      vertex 18.0135 29.7045 -9
    endloop
  endfacet
  facet normal 0.809017 0.587785 0
    outer loop
      vertex 15.7963 29.4715 -9
      vertex 15.4297 29.9761 -12
      vertex 15.4297 29.9761 -9
    endloop
  endfacet
  facet normal 0.809017 0.587785 0
    outer loop
      vertex 15.4297 29.9761 -12
      vertex 15.7963 29.4715 -9
      vertex 15.7963 29.4715 -12
    endloop
  endfacet
  facet normal 0.499999 0.866026 -0
    outer loop
      vertex 16.3365 29.1596 -12
      vertex 15.7963 29.4715 -9
      vertex 16.3365 29.1596 -9
    endloop
  endfacet
  facet normal 0.499999 0.866026 0
    outer loop
      vertex 15.7963 29.4715 -9
      vertex 16.3365 29.1596 -12
      vertex 15.7963 29.4715 -12
    endloop
  endfacet
  facet normal 0.978148 0.207912 0
    outer loop
      vertex 15.4297 29.9761 -9
      vertex 15.3 30.5862 -12
      vertex 15.3 30.5862 -9
    endloop
  endfacet
  facet normal 0.978148 0.207912 0
    outer loop
      vertex 15.3 30.5862 -12
      vertex 15.4297 29.9761 -9
      vertex 15.4297 29.9761 -12
    endloop
  endfacet
  facet normal -0.669129 0.743146 0
    outer loop
      vertex 18.0135 29.7045 -12
      vertex 17.55 29.2872 -9
      vertex 18.0135 29.7045 -9
    endloop
  endfacet
  facet normal -0.669129 0.743146 0
    outer loop
      vertex 17.55 29.2872 -9
      vertex 18.0135 29.7045 -12
      vertex 17.55 29.2872 -12
    endloop
  endfacet
  facet normal 0.978148 -0.20791 0
    outer loop
      vertex -18.3 6 -9
      vertex -18.1703 6.6101 -12
      vertex -18.1703 6.6101 -9
    endloop
  endfacet
  facet normal 0.978148 -0.20791 0
    outer loop
      vertex -18.1703 6.6101 -12
      vertex -18.3 6 -9
      vertex -18.3 6 -12
    endloop
  endfacet
  facet normal -1 0 0
    outer loop
      vertex -15.3328 5.68813 -12
      vertex -15.3328 6.31187 -9
      vertex -15.3328 6.31187 -12
    endloop
  endfacet
  facet normal -1 -0 0
    outer loop
      vertex -15.3328 6.31187 -9
      vertex -15.3328 5.68813 -12
      vertex -15.3328 5.68813 -9
    endloop
  endfacet
  facet normal -0.309016 -0.951057 0
    outer loop
      vertex -16.6432 7.49178 -12
      vertex -16.05 7.29904 -9
      vertex -16.6432 7.49178 -9
    endloop
  endfacet
  facet normal -0.309016 -0.951057 -0
    outer loop
      vertex -16.05 7.29904 -9
      vertex -16.6432 7.49178 -12
      vertex -16.05 7.29904 -12
    endloop
  endfacet
  facet normal -0.66913 -0.743145 0
    outer loop
      vertex -16.05 7.29904 -12
      vertex -15.5865 6.88168 -9
      vertex -16.05 7.29904 -9
    endloop
  endfacet
  facet normal -0.66913 -0.743145 -0
    outer loop
      vertex -15.5865 6.88168 -9
      vertex -16.05 7.29904 -12
      vertex -15.5865 6.88168 -12
    endloop
  endfacet
  facet normal 0.104528 0.994522 -0
    outer loop
      vertex -16.6432 4.50822 -12
      vertex -17.2635 4.57342 -9
      vertex -16.6432 4.50822 -9
    endloop
  endfacet
  facet normal 0.104528 0.994522 0
    outer loop
      vertex -17.2635 4.57342 -9
      vertex -16.6432 4.50822 -12
      vertex -17.2635 4.57342 -12
    endloop
  endfacet
  facet normal 0.5 0.866025 -0
    outer loop
      vertex -17.2635 4.57342 -12
      vertex -17.8037 4.88528 -9
      vertex -17.2635 4.57342 -9
    endloop
  endfacet
  facet normal 0.5 0.866025 0
    outer loop
      vertex -17.8037 4.88528 -9
      vertex -17.2635 4.57342 -12
      vertex -17.8037 4.88528 -12
    endloop
  endfacet
  facet normal 0.5 -0.866025 0
    outer loop
      vertex -17.8037 7.11472 -12
      vertex -17.2635 7.42658 -9
      vertex -17.8037 7.11472 -9
    endloop
  endfacet
  facet normal 0.5 -0.866025 0
    outer loop
      vertex -17.2635 7.42658 -9
      vertex -17.8037 7.11472 -12
      vertex -17.2635 7.42658 -12
    endloop
  endfacet
  facet normal 0.809016 -0.587786 0
    outer loop
      vertex -18.1703 6.6101 -9
      vertex -17.8037 7.11472 -12
      vertex -17.8037 7.11472 -9
    endloop
  endfacet
  facet normal 0.809016 -0.587786 0
    outer loop
      vertex -17.8037 7.11472 -12
      vertex -18.1703 6.6101 -9
      vertex -18.1703 6.6101 -12
    endloop
  endfacet
  facet normal 0.104528 -0.994522 0
    outer loop
      vertex -17.2635 7.42658 -12
      vertex -16.6432 7.49178 -9
      vertex -17.2635 7.42658 -9
    endloop
  endfacet
  facet normal 0.104528 -0.994522 0
    outer loop
      vertex -16.6432 7.49178 -9
      vertex -17.2635 7.42658 -12
      vertex -16.6432 7.49178 -12
    endloop
  endfacet
  facet normal -0.913546 -0.406736 0
    outer loop
      vertex -15.3328 6.31187 -12
      vertex -15.5865 6.88168 -9
      vertex -15.5865 6.88168 -12
    endloop
  endfacet
  facet normal -0.913546 -0.406736 0
    outer loop
      vertex -15.5865 6.88168 -9
      vertex -15.3328 6.31187 -12
      vertex -15.3328 6.31187 -9
    endloop
  endfacet
  facet normal 0.809016 0.587786 0
    outer loop
      vertex -17.8037 4.88528 -9
      vertex -18.1703 5.3899 -12
      vertex -18.1703 5.3899 -9
    endloop
  endfacet
  facet normal 0.809016 0.587786 0
    outer loop
      vertex -18.1703 5.3899 -12
      vertex -17.8037 4.88528 -9
      vertex -17.8037 4.88528 -12
    endloop
  endfacet
  facet normal 0.978148 0.20791 0
    outer loop
      vertex -18.1703 5.3899 -9
      vertex -18.3 6 -12
      vertex -18.3 6 -9
    endloop
  endfacet
  facet normal 0.978148 0.20791 0
    outer loop
      vertex -18.3 6 -12
      vertex -18.1703 5.3899 -9
      vertex -18.1703 5.3899 -12
    endloop
  endfacet
  facet normal -0.309016 0.951057 0
    outer loop
      vertex -16.05 4.70096 -12
      vertex -16.6432 4.50822 -9
      vertex -16.05 4.70096 -9
    endloop
  endfacet
  facet normal -0.309016 0.951057 0
    outer loop
      vertex -16.6432 4.50822 -9
      vertex -16.05 4.70096 -12
      vertex -16.6432 4.50822 -12
    endloop
  endfacet
  facet normal -0.66913 0.743145 0
    outer loop
      vertex -15.5865 5.11832 -12
      vertex -16.05 4.70096 -9
      vertex -15.5865 5.11832 -9
    endloop
  endfacet
  facet normal -0.66913 0.743145 0
    outer loop
      vertex -16.05 4.70096 -9
      vertex -15.5865 5.11832 -12
      vertex -16.05 4.70096 -12
    endloop
  endfacet
  facet normal -0.913546 0.406736 0
    outer loop
      vertex -15.5865 5.11832 -12
      vertex -15.3328 5.68813 -9
      vertex -15.3328 5.68813 -12
    endloop
  endfacet
  facet normal -0.913546 0.406736 0
    outer loop
      vertex -15.3328 5.68813 -9
      vertex -15.5865 5.11832 -12
      vertex -15.5865 5.11832 -9
    endloop
  endfacet
  facet normal 0.978148 -0.20791 0
    outer loop
      vertex -18.3 30.5862 -9
      vertex -18.1703 31.1963 -12
      vertex -18.1703 31.1963 -9
    endloop
  endfacet
  facet normal 0.978148 -0.20791 0
    outer loop
      vertex -18.1703 31.1963 -12
      vertex -18.3 30.5862 -9
      vertex -18.3 30.5862 -12
    endloop
  endfacet
  facet normal -1 0 0
    outer loop
      vertex -15.3328 30.2743 -12
      vertex -15.3328 30.8981 -9
      vertex -15.3328 30.8981 -12
    endloop
  endfacet
  facet normal -1 -0 0
    outer loop
      vertex -15.3328 30.8981 -9
      vertex -15.3328 30.2743 -12
      vertex -15.3328 30.2743 -9
    endloop
  endfacet
  facet normal 0.104527 -0.994522 0
    outer loop
      vertex -17.2635 32.0128 -12
      vertex -16.6432 32.078 -9
      vertex -17.2635 32.0128 -9
    endloop
  endfacet
  facet normal 0.104527 -0.994522 0
    outer loop
      vertex -16.6432 32.078 -9
      vertex -17.2635 32.0128 -12
      vertex -16.6432 32.078 -12
    endloop
  endfacet
  facet normal -0.669132 -0.743143 0
    outer loop
      vertex -16.05 31.8852 -12
      vertex -15.5865 31.4679 -9
      vertex -16.05 31.8852 -9
    endloop
  endfacet
  facet normal -0.669132 -0.743143 -0
    outer loop
      vertex -15.5865 31.4679 -9
      vertex -16.05 31.8852 -12
      vertex -15.5865 31.4679 -12
    endloop
  endfacet
  facet normal 0.104527 0.994522 -0
    outer loop
      vertex -16.6432 29.0944 -12
      vertex -17.2635 29.1596 -9
      vertex -16.6432 29.0944 -9
    endloop
  endfacet
  facet normal 0.104527 0.994522 0
    outer loop
      vertex -17.2635 29.1596 -9
      vertex -16.6432 29.0944 -12
      vertex -17.2635 29.1596 -12
    endloop
  endfacet
  facet normal 0.499999 -0.866026 0
    outer loop
      vertex -17.8037 31.7009 -12
      vertex -17.2635 32.0128 -9
      vertex -17.8037 31.7009 -9
    endloop
  endfacet
  facet normal 0.499999 -0.866026 0
    outer loop
      vertex -17.2635 32.0128 -9
      vertex -17.8037 31.7009 -12
      vertex -17.2635 32.0128 -12
    endloop
  endfacet
  facet normal 0.809016 -0.587786 0
    outer loop
      vertex -18.1703 31.1963 -9
      vertex -17.8037 31.7009 -12
      vertex -17.8037 31.7009 -9
    endloop
  endfacet
  facet normal 0.809016 -0.587786 0
    outer loop
      vertex -17.8037 31.7009 -12
      vertex -18.1703 31.1963 -9
      vertex -18.1703 31.1963 -12
    endloop
  endfacet
  facet normal -0.309012 -0.951058 0
    outer loop
      vertex -16.6432 32.078 -12
      vertex -16.05 31.8852 -9
      vertex -16.6432 32.078 -9
    endloop
  endfacet
  facet normal -0.309012 -0.951058 -0
    outer loop
      vertex -16.05 31.8852 -9
      vertex -16.6432 32.078 -12
      vertex -16.05 31.8852 -12
    endloop
  endfacet
  facet normal 0.978148 0.207909 0
    outer loop
      vertex -18.1703 29.9761 -9
      vertex -18.3 30.5862 -12
      vertex -18.3 30.5862 -9
    endloop
  endfacet
  facet normal 0.978148 0.207909 0
    outer loop
      vertex -18.3 30.5862 -12
      vertex -18.1703 29.9761 -9
      vertex -18.1703 29.9761 -12
    endloop
  endfacet
  facet normal 0.499999 0.866026 -0
    outer loop
      vertex -17.2635 29.1596 -12
      vertex -17.8037 29.4715 -9
      vertex -17.2635 29.1596 -9
    endloop
  endfacet
  facet normal 0.499999 0.866026 0
    outer loop
      vertex -17.8037 29.4715 -9
      vertex -17.2635 29.1596 -12
      vertex -17.8037 29.4715 -12
    endloop
  endfacet
  facet normal 0.809016 0.587786 0
    outer loop
      vertex -17.8037 29.4715 -9
      vertex -18.1703 29.9761 -12
      vertex -18.1703 29.9761 -9
    endloop
  endfacet
  facet normal 0.809016 0.587786 0
    outer loop
      vertex -18.1703 29.9761 -12
      vertex -17.8037 29.4715 -9
      vertex -17.8037 29.4715 -12
    endloop
  endfacet
  facet normal -0.913546 0.406736 0
    outer loop
      vertex -15.5865 29.7045 -12
      vertex -15.3328 30.2743 -9
      vertex -15.3328 30.2743 -12
    endloop
  endfacet
  facet normal -0.913546 0.406736 0
    outer loop
      vertex -15.3328 30.2743 -9
      vertex -15.5865 29.7045 -12
      vertex -15.5865 29.7045 -9
    endloop
  endfacet
  facet normal -0.309017 0.951056 0
    outer loop
      vertex -16.05 29.2872 -12
      vertex -16.6432 29.0944 -9
      vertex -16.05 29.2872 -9
    endloop
  endfacet
  facet normal -0.309017 0.951056 0
    outer loop
      vertex -16.6432 29.0944 -9
      vertex -16.05 29.2872 -12
      vertex -16.6432 29.0944 -12
    endloop
  endfacet
  facet normal -0.669129 0.743146 0
    outer loop
      vertex -15.5865 29.7045 -12
      vertex -16.05 29.2872 -9
      vertex -15.5865 29.7045 -9
    endloop
  endfacet
  facet normal -0.669129 0.743146 0
    outer loop
      vertex -16.05 29.2872 -9
      vertex -15.5865 29.7045 -12
      vertex -16.05 29.2872 -12
    endloop
  endfacet
  facet normal -0.913545 -0.406737 0
    outer loop
      vertex -15.3328 30.8981 -12
      vertex -15.5865 31.4679 -9
      vertex -15.5865 31.4679 -12
    endloop
  endfacet
  facet normal -0.913545 -0.406737 0
    outer loop
      vertex -15.5865 31.4679 -9
      vertex -15.3328 30.8981 -12
      vertex -15.3328 30.8981 -9
    endloop
  endfacet
endsolid OpenSCAD_Model
