G04 EAGLE Gerber RS-274X export*
G75*
%MOMM*%
%FSLAX34Y34*%
%LPD*%
%INBottom Copper*%
%IPPOS*%
%AMOC8*
5,1,8,0,0,1.08239X$1,22.5*%
G01*
%ADD10C,1.524000*%
%ADD11C,1.308000*%
%ADD12C,4.016000*%
%ADD13C,0.152400*%


D10*
X838200Y538480D02*
X838200Y553720D01*
X863600Y553720D02*
X863600Y538480D01*
X889000Y538480D02*
X889000Y553720D01*
X444500Y350520D02*
X444500Y335280D01*
X419100Y335280D02*
X419100Y350520D01*
X393700Y350520D02*
X393700Y335280D01*
X368300Y335280D02*
X368300Y350520D01*
X342900Y350520D02*
X342900Y335280D01*
D11*
X742760Y749300D02*
X755840Y749300D01*
X755840Y723900D02*
X742760Y723900D01*
X742760Y698500D02*
X755840Y698500D01*
X755840Y673100D02*
X742760Y673100D01*
X742760Y647700D02*
X755840Y647700D01*
X755840Y622300D02*
X742760Y622300D01*
X742760Y596900D02*
X755840Y596900D01*
X755840Y571500D02*
X742760Y571500D01*
X742760Y546100D02*
X755840Y546100D01*
X755840Y520700D02*
X742760Y520700D01*
X742760Y495300D02*
X755840Y495300D01*
X755840Y469900D02*
X742760Y469900D01*
X742760Y444500D02*
X755840Y444500D01*
X755840Y419100D02*
X742760Y419100D01*
X742760Y393700D02*
X755840Y393700D01*
X527240Y749300D02*
X514160Y749300D01*
X514160Y723900D02*
X527240Y723900D01*
X527240Y698500D02*
X514160Y698500D01*
X514160Y673100D02*
X527240Y673100D01*
X527240Y647700D02*
X514160Y647700D01*
X514160Y622300D02*
X527240Y622300D01*
X527240Y596900D02*
X514160Y596900D01*
X514160Y571500D02*
X527240Y571500D01*
X527240Y546100D02*
X514160Y546100D01*
X514160Y520700D02*
X527240Y520700D01*
X527240Y495300D02*
X514160Y495300D01*
X514160Y469900D02*
X527240Y469900D01*
X527240Y444500D02*
X514160Y444500D01*
X514160Y419100D02*
X527240Y419100D01*
X527240Y393700D02*
X514160Y393700D01*
D12*
X736600Y787400D03*
X533400Y787400D03*
X533400Y355600D03*
X736600Y355600D03*
D10*
X901700Y350520D02*
X901700Y335280D01*
X876300Y335280D02*
X876300Y350520D01*
X850900Y350520D02*
X850900Y335280D01*
X825500Y335280D02*
X825500Y350520D01*
X889000Y728980D02*
X889000Y744220D01*
X863600Y744220D02*
X863600Y728980D01*
X838200Y728980D02*
X838200Y744220D01*
D13*
X653796Y469392D02*
X521208Y469392D01*
X653796Y469392D02*
X742188Y381000D01*
X812800Y381000D01*
X850900Y342900D01*
X521208Y469392D02*
X520700Y469900D01*
X520700Y495300D02*
X653796Y495300D01*
X745236Y403860D01*
X803148Y403860D01*
X826008Y381000D01*
X838200Y381000D01*
X876300Y342900D01*
X749808Y743712D02*
X749808Y748284D01*
X749808Y743712D02*
X900684Y592836D01*
X900684Y343408D01*
X749808Y748284D02*
X749300Y749300D01*
X900684Y343408D02*
X901700Y342900D01*
X519684Y513588D02*
X519684Y519684D01*
X519684Y513588D02*
X368808Y362712D01*
X368808Y342900D01*
X519684Y519684D02*
X520700Y520700D01*
X368808Y342900D02*
X368300Y342900D01*
X519684Y539496D02*
X519684Y545592D01*
X519684Y539496D02*
X342900Y362712D01*
X342900Y342900D01*
X519684Y545592D02*
X520700Y546100D01*
M02*
